<?xml version="1.0" encoding="UTF-8" standalone="no"?>
<svg
   viewBox="0 0 1000 140"
   version="1.1"
   id="svg1"
   sodipodi:docname="bcbox_header_1vg.svg"
   width="1000"
   height="140"
   xml:space="preserve"
   inkscape:version="1.3 (0e150ed, 2023-07-21)"
   xmlns:inkscape="http://www.inkscape.org/namespaces/inkscape"
   xmlns:sodipodi="http://sodipodi.sourceforge.net/DTD/sodipodi-0.dtd"
   xmlns="http://www.w3.org/2000/svg"
   xmlns:svg="http://www.w3.org/2000/svg"><defs
     id="defs1" /><sodipodi:namedview
     id="namedview1"
     pagecolor="#ffffff"
     bordercolor="#000000"
     borderopacity="0.25"
     inkscape:showpageshadow="2"
     inkscape:pageopacity="0.0"
     inkscape:pagecheckerboard="0"
     inkscape:deskcolor="#d1d1d1"
     showguides="true"
     inkscape:zoom="0.84085"
     inkscape:cx="500.08919"
     inkscape:cy="70.167092"
     inkscape:window-width="1920"
     inkscape:window-height="1027"
     inkscape:window-x="1728"
     inkscape:window-y="25"
     inkscape:window-maximized="0"
     inkscape:current-layer="svg1"><sodipodi:guide
       position="225.62712,88.22034"
       orientation="1,0"
       id="guide3"
       inkscape:locked="false" /><sodipodi:guide
       position="-99.79661,92.55932"
       orientation="0,-1"
       id="guide4"
       inkscape:locked="false" /><sodipodi:guide
       position="334.72768,252.51588"
       orientation="1,0"
       id="guide5"
       inkscape:locked="false" /><sodipodi:guide
       position="442.57627,248.76271"
       orientation="1,0"
       id="guide6"
       inkscape:locked="false" /><sodipodi:guide
       position="549.65809,281.87796"
       orientation="1,0"
       id="guide7"
       inkscape:locked="false" /><sodipodi:guide
       position="657.35593,303"
       orientation="1,0"
       id="guide8"
       inkscape:locked="false" /><sodipodi:guide
       position="119.79728,248.99244"
       orientation="1,0"
       id="guide9"
       inkscape:locked="false" /><sodipodi:guide
       position="765.83051,253.10169"
       orientation="1,0"
       id="guide10"
       inkscape:locked="false" /><sodipodi:guide
       position="873.81543,226.67726"
       orientation="1,0"
       id="guide11"
       inkscape:locked="false" /><sodipodi:guide
       position="981.86787,253.69037"
       orientation="1,0"
       id="guide12"
       inkscape:locked="false" /><sodipodi:guide
       position="1088.7458,284.22693"
       orientation="1,0"
       id="guide13"
       inkscape:locked="false" /><sodipodi:guide
       position="-92.784165,-159.72768"
       orientation="0,-1"
       id="guide14"
       inkscape:locked="false" /><sodipodi:guide
       position="-102.18003,-268.95461"
       orientation="0,-1"
       id="guide15"
       inkscape:locked="false" /><sodipodi:guide
       position="-68.12002,-15.26626"
       orientation="0,-1"
       id="guide16"
       inkscape:locked="false" /></sodipodi:namedview><!--! Font Awesome Pro 6.4.2 by @fontawesome - https://fontawesome.com License - https://fontawesome.com/license (Commercial License) Copyright 2023 Fonticons, Inc. --><g
     id="g18"
     transform="translate(-106,-66)"><path
       d="m 147.57331,116.52476 c 0.30148,-0.62007 0.96475,-0.97585 1.63805,-0.88437 l 24.60094,3.11052 24.60094,-3.11052 c 0.67331,-0.0813 1.33657,0.27446 1.63805,0.88437 l 4.1906,8.47767 c 0.90445,1.81955 -0.0603,4.02537 -1.98978,4.58445 l -16.42072,4.74709 c -1.39687,0.40661 -2.89423,-0.19313 -3.63789,-1.4536 l -8.3812,-14.12946 -8.3812,14.12946 c -0.74366,1.26047 -2.24102,1.86021 -3.63788,1.4536 l -16.41068,-4.74709 c -1.93953,-0.55908 -2.89423,-2.7649 -1.98978,-4.58445 z m 26.34954,8.7318 5.51712,9.29088 c 1.49736,2.52094 4.48203,3.72042 7.28581,2.90721 l 12.81299,-3.70009 v 16.97568 c 0,2.23632 -1.50741,4.18802 -3.65798,4.73693 l -20.51083,5.18419 c -1.02504,0.26429 -2.10033,0.26429 -3.11532,0 l -20.51083,-5.18419 c -2.15057,-0.55908 -3.65798,-2.51077 -3.65798,-4.74709 V 133.7444 l 12.82304,3.71025 c 2.79373,0.81321 5.78846,-0.38627 7.28582,-2.90721 l 5.50707,-9.29088 z"
       id="path1"
       style="fill:#003366;fill-opacity:1;stroke:#003366;stroke-width:0.101;stroke-dasharray:none;stroke-opacity:1" /><ellipse
       style="fill:none;stroke:#003366;stroke-width:4.04283;stroke-dasharray:none;stroke-opacity:1;paint-order:fill markers stroke"
       id="path2"
       cx="172.98598"
       cy="137.08655"
       inkscape:label="path2"
       rx="51.016899"
       ry="51.604137" /></g><g
     id="g17"
     transform="translate(-106,-66)"><ellipse
       style="fill:none;stroke:#003366;stroke-width:4.07904;stroke-dasharray:none;stroke-opacity:1;paint-order:fill markers stroke"
       id="path2-0"
       cx="388.02917"
       cy="136.15347"
       inkscape:label="path2"
       rx="52.359848"
       ry="51.185364" /><path
       d="m 393.14769,112.47349 v 32.62726 c 0,2.37949 -1.96652,4.3019 -4.40061,4.3019 -2.43409,0 -4.40061,-1.92241 -4.40061,-4.3019 v -32.62726 l -10.09391,9.8675 c -1.71899,1.68043 -4.51063,1.68043 -6.22962,0 -1.71899,-1.68043 -1.71899,-4.40945 0,-6.08989 L 385.6254,99.043487 c 1.71898,-1.680433 4.51062,-1.680433 6.22962,0 l 17.60245,17.207613 c 1.71899,1.68044 1.71899,4.40946 0,6.08989 -1.71899,1.68043 -4.51063,1.68043 -6.22962,0 z m -30.80429,32.62726 h 17.60245 c 0,4.74553 3.9468,8.60381 8.80123,8.60381 4.85443,0 8.80123,-3.85828 8.80123,-8.60381 h 17.60245 c 4.85443,0 8.80123,3.85827 8.80123,8.60381 v 4.3019 c 0,4.74554 -3.9468,8.60381 -8.80123,8.60381 H 362.3434 c -4.85443,0 -8.80123,-3.85827 -8.80123,-8.60381 v -4.3019 c 0,-4.74554 3.9468,-8.60381 8.80123,-8.60381 z m 50.60706,13.98118 a 3.3004605,3.2264279 0 1 0 0,-6.45285 3.3004605,3.2264279 0 1 0 0,6.45285 z"
       id="path1-4"
       style="fill:#003366;fill-opacity:1;stroke:#003366;stroke-width:0.136;stroke-dasharray:none;stroke-opacity:1" /></g><g
     id="g16"
     transform="translate(-106,-66)"><circle
       style="fill:none;stroke:#003366;stroke-width:4.03478;stroke-dasharray:none;stroke-opacity:1;paint-order:fill markers stroke"
       id="path2-0-4"
       cx="603.47803"
       cy="136.54005"
       inkscape:label="path2"
       r="51.207497" /><path
       d="m 578.69919,109.79963 c 0,-4.63743 3.77037,-8.4078 8.4078,-8.4078 h 21.0195 v 16.8156 c 0,2.32528 1.87862,4.20391 4.2039,4.20391 h 16.81559 v 37.83509 c 0,4.63742 -3.77037,8.4078 -8.40779,8.4078 h -33.6312 c -4.63743,0 -8.4078,-3.77038 -8.4078,-8.4078 z m 50.44679,8.4078 h -16.81559 v -16.8156 z"
       id="path1-42"
       style="fill:#003366;fill-opacity:1;stroke:#003366;stroke-width:0.131372;stroke-opacity:1" /></g><g
     id="g19"
     transform="translate(-110,-66)"><ellipse
       style="fill:none;stroke:#003366;stroke-width:4.07904;stroke-dasharray:none;stroke-opacity:1;paint-order:fill markers stroke"
       id="path2-0-4-2"
       cx="821.09528"
       cy="136.45937"
       inkscape:label="path2"
       rx="52.359848"
       ry="51.185364" /><path
       d="m 835.3878,133.25315 c 7.28692,0 13.19894,-5.91202 13.19894,-13.19894 0,-7.28691 -5.91202,-13.19894 -13.19894,-13.19894 -7.28691,0 -13.19894,5.91203 -13.19894,13.19894 0,0.54996 0.0275,1.09991 0.0962,1.63612 l -12.93771,6.46198 c -2.36481,-2.29606 -5.5958,-3.69845 -9.15677,-3.69845 -7.28691,0 -13.19894,5.91203 -13.19894,13.19894 0,7.28692 5.91203,13.19894 13.19894,13.19894 3.56097,0 6.79196,-1.40238 9.15677,-3.69845 l 12.93771,6.46198 c -0.0687,0.5362 -0.0962,1.07241 -0.0962,1.63612 0,7.28692 5.91203,13.19894 13.19894,13.19894 7.28692,0 13.19894,-5.91202 13.19894,-13.19894 0,-7.28692 -5.91202,-13.19895 -13.19894,-13.19895 -3.56096,0 -6.79195,1.4024 -9.15677,3.69846 l -12.93771,-6.46198 c 0.0688,-0.53621 0.0962,-1.07242 0.0962,-1.63612 0,-0.56371 -0.0275,-1.09992 -0.0962,-1.63612 l 12.93771,-6.46199 c 2.36482,2.29608 5.59581,3.69846 9.15677,3.69846 z"
       id="path1-44"
       style="fill:#003366;fill-opacity:1;stroke-width:0.137489" /></g><g
     id="g20"
     transform="translate(-106,-66)"><ellipse
       style="fill:none;fill-opacity:0;stroke:#003366;stroke-width:4.07904;stroke-dasharray:none;stroke-opacity:1;paint-order:fill markers stroke"
       id="path2-0-4-2-9"
       cx="1035.4104"
       cy="137.72766"
       inkscape:label="path2"
       rx="52.359848"
       ry="51.185364" /><path
       d="m 1017.3279,113.96217 a 7.9161,7.9161 0 1 1 0,15.8322 7.9161,7.9161 0 1 1 0,-15.8322 z m 36.4141,0 a 7.9161,7.9161 0 1 1 0,15.8322 7.9161,7.9161 0 1 1 0,-15.8322 z m -50.663,29.55674 c 0,-5.82823 4.7298,-10.5581 10.5581,-10.5581 h 4.2252 c 1.5733,0 3.0675,0.34633 4.4132,0.95983 -0.1286,0.71245 -0.188,1.45458 -0.188,2.20661 0,3.77994 1.6624,7.17397 4.2846,9.49932 -0.02,0 -0.04,0 -0.069,0 h -21.1162 c -1.1577,0 -2.1077,-0.94993 -2.1077,-2.10766 z m 40.1049,2.10766 c -0.02,0 -0.04,0 -0.069,0 2.6321,-2.32535 4.2846,-5.71938 4.2846,-9.49932 0,-0.75203 -0.069,-1.48427 -0.188,-2.20661 1.3457,-0.62339 2.8399,-0.95983 4.4132,-0.95983 h 4.2252 c 5.8283,0 10.5581,4.72987 10.5581,10.5581 0,1.16763 -0.9499,2.10766 -2.1076,2.10766 z m -17.9399,-9.49932 a 9.49935,9.49935 0 1 1 18.9987,0 9.49935,9.49935 0 1 1 -18.9987,0 z m -9.4993,25.85596 c 0,-7.28281 5.9074,-13.1902 13.1902,-13.1902 h 11.6169 c 7.2828,0 13.1902,5.90739 13.1902,13.1902 0,1.45459 -1.1775,2.642 -2.642,2.642 h -32.7133 c -1.4546,0 -2.642,-1.17752 -2.642,-2.642 z"
       id="path1-55"
       style="fill:#003366;fill-opacity:1;stroke:#003366;stroke-width:0.0989513;stroke-opacity:1" /></g></svg>
