<?xml version="1.0"?>
<svg width="165" height="120" xmlns="http://www.w3.org/2000/svg" xmlns:svg="http://www.w3.org/2000/svg" version="1.1" xml:space="preserve">

 <g class="layer">
  <title>Layer 1</title>
  <g id="layer1">
   <path d="m42.86,19.66c6.53,-3.04 13.22,-5.7 19.91,-8.36c2.34,-0.85 4.67,-1.75 7.07,-2.39c0.35,-0.09 0.83,-0.51 1.06,-0.23c0.23,0.28 -0.28,0.66 -0.42,0.99c2.94,1.2 5.88,2.4 8.82,3.61c8.58,3.7 17.02,7.7 25.36,11.91c1.98,1.01 4.82,2.48 6.88,3.65c0.45,0.26 0.88,0.54 1.33,0.81c0.15,0.11 0.3,0.22 0.45,0.33c-0.02,-0.04 -0.12,-0.12 -0.07,-0.13c1.24,-0.16 2.48,-0.18 3.72,-0.35c0.08,-0.01 -0.15,-0.07 -0.22,-0.11c-0.12,-0.07 -0.11,-0.07 -0.2,-0.16c-1.35,-0.12 -2.71,-0.35 -4.07,-0.35c-0.17,0 -0.24,0.24 -0.37,0.35c-0.54,0.49 -1.3,1.13 -1.85,1.54c-1.46,1.08 -2.18,1.5 -3.72,2.49c-1.88,1.19 -3.86,2.23 -5.8,3.33c-1.18,0.67 -1.18,0.68 -2.35,1.37c-1.08,0.75 -2.25,1.36 -3.39,2.01c-0.35,0.3 -0.78,0.46 -1.19,0.66c-0.2,0.05 -0.36,0.19 -0.56,0.24c-0.04,0.01 -0.1,0 -0.14,0.02c-0.06,0.03 -0.11,0.08 -0.17,0.12c-0.05,0.03 -0.11,0.05 -0.16,0.08c-0.17,0.07 -0.32,0.04 -0.51,0.03c-0.26,-0.02 -0.53,-0.02 -0.8,-0.02c0.14,-0.01 -0.72,-0.02 -0.54,-0.01c0.91,0 3.42,0.61 2.74,0c-1.09,-0.97 -2.79,-0.85 -4.18,-1.3c-4.06,-1.3 -8.48,-2.8 -12.48,-4.14c-4.64,-1.66 -9.29,-3.3 -13.85,-5.15c-0.57,-0.23 -1.14,-0.49 -1.71,-0.73c-2.24,-0.95 -0.82,-0.33 -3.06,-1.33c-1.33,-0.64 -2.66,-1.3 -3.94,-2.04c-0.85,-0.48 -1.67,-1.03 -2.5,-1.53c-1.37,-0.81 -2.64,-1.77 -4.04,-2.52c-0.92,-0.49 -1.6,-0.8 -2.53,-1.24c-0.79,-0.43 -1.74,-0.68 -2.39,-1.33c-0.15,-0.15 -0.22,-0.3 -0.32,-0.48c-0.03,-0.06 -0.28,-0.51 -0.23,-0.57c0.02,-0.02 0.07,0.02 0.1,0.01c0.18,-0.12 0.08,-0.07 0.29,-0.14c0.06,-0.01 0.12,-0.03 0.18,-0.05c0,0 -3.85,-0.89 -3.85,-0.89l0,0c-0.07,0.04 -0.13,0.09 -0.2,0.13c-0.54,0.52 -0.61,0.9 -0.22,1.55c0.11,0.24 0.2,0.47 0.37,0.68c0.65,0.82 1.7,1.08 2.61,1.5c1.15,0.51 1.37,0.58 2.5,1.19c1.39,0.75 2.68,1.67 4.02,2.5c0.31,0.2 0.62,0.4 0.94,0.6c0.25,0.17 0.5,0.35 0.76,0.51c0.55,0.34 1.4,0.77 1.94,1.05c1.08,0.55 1.84,0.93 2.93,1.48c1.17,0.53 1.93,0.9 3.14,1.35c0.67,0.25 1.36,0.47 2.04,0.7c1.14,0.38 2.28,0.75 3.42,1.14c5.7,1.92 5.1,1.73 11.29,3.9c2.19,0.79 4.38,1.57 6.58,2.36c1.73,0.62 3.47,1.22 5.19,1.87c1.17,0.45 2.27,1.1 3.48,1.4c1.78,0.45 3.5,0.67 5.28,0.68c0.49,-0.01 0.98,0 1.41,-0.27c0.47,-0.23 -0.13,0.05 0.31,-0.12c0.25,-0.09 0.47,-0.25 0.71,-0.35c0.14,-0.07 0.28,-0.13 0.42,-0.2c0.26,-0.15 0.48,-0.35 0.74,-0.5c1.09,-0.64 2.11,-1.38 3.17,-2.06c1.16,-0.69 2.34,-1.35 3.5,-2.03c1.2,-0.71 1.43,-0.86 2.66,-1.64c0.59,-0.36 1.18,-0.74 1.77,-1.11c0.05,-0.03 3.84,-2.45 3.9,-2.49c0.45,-0.29 0.87,-0.61 1.31,-0.91c0.26,-0.18 0.52,-0.38 0.8,-0.54c0.11,-0.06 0.5,-0.11 0.37,-0.13c-1.23,-0.21 -2.48,-0.29 -3.71,-0.44c0.08,0.08 0.37,0.46 0.46,0.46c1.4,0.02 2.8,-0.01 4.19,-0.11c0.08,-0.01 -0.03,-0.16 -0.1,-0.2c-0.21,-0.14 -0.46,-0.22 -0.69,-0.33c-1.8,-0.84 -2.76,-1.3 -4.75,-2.19c-1.6,-0.72 -3.21,-1.42 -4.81,-2.14c-6.25,-2.8 -9.6,-4.29 -16.06,-7.32c-3.22,-1.5 -6.43,-3.04 -9.64,-4.57c-6.94,-3.48 -6.78,-4.1 -13.92,-5.33c-0.32,-0.06 -0.62,0.19 -0.92,0.3c-2.23,0.78 -4.42,1.67 -6.61,2.54c-4.49,1.89 -2.55,1.08 -7.36,3.06c-1.38,0.57 -2.76,1.16 -4.14,1.71c-1.44,0.56 -5.71,2.19 -7.43,2.8c-0.58,0.2 -1.17,0.39 -1.76,0.58c0,0 3.81,0.94 3.81,0.94z" fill="#003366" id="path15178" stroke="#003266" stroke-width="0.26"/>
   <path d="m37.27,19.38c-0.15,0.29 -0.29,0.58 -0.45,0.87c-0.21,0.4 -0.45,0.78 -0.66,1.17c-0.74,1.37 -0.88,1.72 -1.61,3.11c-1.01,1.87 -0.53,0.97 -1.44,2.7c-0.28,0.53 -0.58,1.04 -0.86,1.56c-0.06,0.1 -0.36,0.58 -0.22,0.76c1.29,1.67 6.01,2.65 6.47,2.82c7.48,2.71 14.85,5.72 22.13,8.93c2.31,1.02 4.91,2.21 7.2,3.36c0.65,0.33 1.29,0.69 1.93,1.03c0.77,0.46 1.01,0.56 1.62,1.01c0.05,0.04 0.12,0.18 0.14,0.12c0.06,-0.23 -0.13,-0.92 0.02,-0.73c0.84,1.01 -0.35,0.89 0.33,0.92c0.26,0.03 0.51,0.11 0.77,0.13c0.09,0.01 0.17,0 0.26,0.02c0.2,0.05 0.4,0.13 0.6,0.2c0.24,0.12 0.49,0.24 0.73,0.36c0.51,0.26 0.71,0.38 1.21,0.63c0.45,0.23 0.92,0.43 1.38,0.65c1.5,0.68 3.88,1.46 5.18,0.54c0.04,-0.07 0.08,-0.16 0.14,-0.22c0.77,-0.63 1.83,-1.26 2.63,-1.77c1.95,-1.24 3.91,-2.47 5.88,-3.69c0.75,-0.51 1.53,-1.01 2.24,-1.57c0.39,-0.31 0.86,-0.69 1.08,-1.16c0.03,-0.08 0.04,-0.17 0.06,-0.25c0,0 -3.94,-0.39 -3.94,-0.39l0,0c-0.1,0.39 -0.61,0.83 -0.88,1.07c-0.8,0.72 -1.05,0.86 -2,1.57c-0.56,0.37 -1.12,0.75 -1.69,1.12c-1.38,0.88 -2.79,1.73 -4.2,2.55c-0.59,0.35 -1.19,0.69 -1.78,1.03c-0.43,0.24 -0.85,0.5 -1.29,0.73c-0.03,0.02 -0.06,-0.01 -0.1,-0.02c-1.28,-0.39 -0.31,-0.08 3.59,0.22c0.06,0 -0.12,0.02 -0.18,0.02c-0.31,0.01 -0.59,-0.1 -0.88,-0.21c-0.62,-0.27 -0.3,-0.13 -0.94,-0.44c-0.16,-0.07 -0.32,-0.13 -0.47,-0.19c-0.67,-0.3 -1.31,-0.64 -1.95,-1c-0.17,-0.11 -0.51,-0.37 -0.77,-0.44c-0.05,-0.01 -0.11,0 -0.16,0c-0.21,-0.01 -0.41,-0.04 -0.61,-0.09c-0.61,-0.18 0.27,0.01 -0.41,0.82c-0.16,0.19 0.12,-0.49 0.08,-0.73c-0.02,-0.1 -0.16,-0.11 -0.25,-0.16c-0.65,-0.37 -1.32,-0.69 -2,-1.03c-2.28,-1.04 -2.95,-1.37 -5.5,-2.42c-1.56,-0.64 -3.15,-1.24 -4.72,-1.87c-7.29,-2.91 -14.57,-5.85 -21.78,-8.97c-1.5,-0.69 -2.99,-1.4 -4.5,-2.06c-0.24,-0.11 -0.5,-0.14 -0.73,-0.24c-0.12,-0.05 0.02,-0.3 0.08,-0.47c0.23,-0.56 0.44,-1.01 0.7,-1.58c0.71,-1.48 0.52,-1.12 1.35,-2.7c0.91,-1.74 1.85,-3.48 3.05,-5.03c0,0 -3.88,-0.59 -3.88,-0.59z" fill="#003366" id="path15184" stroke="#003266" stroke-width="0.26"/>
   <path d="m93.77,41.76c0.51,0.14 1.02,0.27 1.53,0.43c0.69,0.2 1.37,0.43 2.06,0.65c2.61,0.86 5.2,1.78 7.72,2.88c0.48,0.21 0.96,0.45 1.43,0.68c1.14,0.64 1.16,0.62 2.17,1.33c0.23,0.16 0.4,0.47 0.67,0.5c1.52,0.19 3.08,0.41 4.58,0.16c0.58,-0.1 0.89,-0.77 1.32,-1.16c0.5,-0.46 0.99,-0.94 1.48,-1.4c3.79,-3.78 -0.76,0.77 2.55,-2.59c0.63,-0.63 1.09,-1.11 1.78,-1.64c0.63,-0.48 0.89,-0.59 1.55,-0.96c0.26,-0.15 0.76,-0.3 0.69,-0.74c-0.1,-0.63 -0.63,-1.22 -1.01,-1.68c-0.25,-0.31 -0.97,-1.13 -1.25,-1.45c-1.08,-1.32 -1.85,-2.84 -2.74,-4.28c-0.41,-0.67 -0.83,-1.32 -1.25,-1.98c-0.21,-0.32 -0.35,-0.68 -0.47,-1.05c0,0 -3.91,-0.03 -3.91,-0.03l0,0c0.14,0.39 0.26,0.79 0.45,1.17c0.39,0.7 0.94,1.29 1.36,1.98c0.28,0.44 0.57,0.88 0.85,1.32c0.64,1.02 1.12,2.14 1.92,3.06c0.58,0.61 0.72,0.74 1.27,1.42c0.19,0.23 0.36,0.48 0.55,0.71c0.1,0.12 0.26,0.19 0.33,0.32c0.11,0.2 -1.02,0.39 -0.51,0.42c-0.59,0.39 -0.95,0.6 -1.5,1.08c-0.68,0.59 -1.05,1.04 -1.67,1.71c-1.48,1.64 -0.74,0.85 -2.45,2.56c-0.51,0.44 -0.99,0.93 -1.54,1.33c-0.46,0.34 -1.86,0.49 -1.46,0.89c0.69,0.69 1.89,0.52 2.87,0.52c0.3,0 -0.5,-0.35 -0.76,-0.52c-1.23,-0.84 -0.89,-0.61 -2.28,-1.41c-4.1,-1.72 -8.28,-3.23 -12.45,-4.76c0,0 -3.88,0.53 -3.88,0.53z" fill="#003366" id="path15190" stroke="#003266" stroke-width="0.26"/>
   <path d="m116.92,28.87c0.56,-2.28 -0.2,-4.69 -0.22,-7.03c-0.01,-0.47 -0.02,-0.94 -0.01,-1.4c0,-0.16 0.02,-0.44 -0.01,-0.61c-0.01,-0.09 -0.05,-0.18 -0.07,-0.28c-0.63,-0.36 -1.23,-0.76 -1.88,-1.09c-1.41,-0.74 -4.78,-2.24 -6.06,-2.81c-1.25,-0.55 -2.51,-1.08 -3.76,-1.63c-2.67,-1.16 -3.31,-1.46 -5.77,-2.56c-3.24,-1.52 -6.56,-2.82 -9.86,-4.19c-0.91,-0.39 -1.87,-0.69 -2.81,-1.02c-1.31,-0.52 -2.71,-0.77 -4.09,-1.07c-2.32,-0.44 -2.63,-0.56 -6.13,-0.38c-0.89,0.04 -1.74,0.37 -2.6,0.56c-0.82,0.18 -5.55,1.27 -6.43,1.48c-0.83,0.2 1.28,-0.22 0.46,-0.01c-0.56,0.16 0.39,-0.13 -0.16,0.03l-0.93,1.98l0,0c0.49,-0.17 0.98,-0.34 1.47,-0.51c0.77,-0.22 1.53,-0.45 2.3,-0.65c1.95,-0.51 4.55,-1.09 6.52,-1.43c0.95,-0.17 2.19,0.27 2.87,-0.41c0.52,-0.51 -1.43,-0.23 -2.15,-0.31c-0.37,-0.04 0.74,0.13 1.11,0.19c1.79,0.37 0.52,0.09 2.15,0.5c0.58,0.15 1.17,0.28 1.73,0.51c0.92,0.38 -0.21,-0.07 0.72,0.25c0.61,0.22 0.16,0.11 0.83,0.29c0.19,0.05 0.39,0.09 0.59,0.14c0.3,0.09 0.6,0.2 0.9,0.3c3.43,1.28 6.79,2.75 10.18,4.14c3.28,1.32 6.54,2.67 9.74,4.15c3.04,1.4 2.96,1.42 5.65,2.82c0.48,0.25 0.97,0.49 1.46,0.74c0.03,0.03 0.07,0.05 0.08,0.09c0.05,0.12 0.05,0.48 0.05,0.56c0.01,0.48 0.03,0.95 0.07,1.43c0.05,0.53 0.11,1.06 0.14,1.59c0.13,1.81 0.13,3.63 0.04,5.44l3.47,1.89l0.41,-1.69z" fill="#003366" id="path15210" stroke="#003266" stroke-width="0.26"/>
   <path d="m42.68,19.69c-0.4,-0.9 -0.54,-1.88 -0.6,-2.86c-0.05,-1.34 -0.02,-2.68 -0.06,-4.01c-0.01,-0.71 -0.04,-1.41 -0.02,-2.11c0.16,-0.01 0.34,0.02 0.5,-0.03c0.46,-0.15 0.9,-0.4 1.35,-0.59c0.61,-0.25 1.23,-0.5 1.85,-0.74c1.28,-0.5 2.54,-0.98 3.86,-1.4c0.65,-0.21 1.31,-0.38 1.97,-0.57c1.86,-0.48 3.73,-0.94 5.61,-1.33c0.76,-0.15 1.53,-0.28 2.3,-0.43c0.01,0 0.66,-0.3 0.71,-0.3c0.24,0 0.95,0.12 0.71,0.13c-0.75,0.04 -1.55,-0.32 -2.25,-0.06c-0.51,0.19 1.09,0.19 1.63,0.29c0.54,0.11 1.08,0.22 1.62,0.33c1.25,0.29 2.52,0.52 3.78,0.81c0.71,0.17 1,0.26 1.69,0.46c0.22,0.06 0.44,0.13 0.65,0.19c0,0 3.8,-0.52 3.8,-0.52l0,0c-0.22,-0.06 -0.45,-0.12 -0.68,-0.18c-0.65,-0.19 -1.04,-0.3 -1.69,-0.48c-0.25,-0.07 -0.5,-0.15 -0.76,-0.2c-0.24,-0.05 -0.48,-0.08 -0.72,-0.12c-0.95,-0.17 -1.52,-0.29 -2.5,-0.48c-0.22,-0.05 -2.95,-0.62 -3.19,-0.65c-0.76,-0.1 -4.13,-0.73 -5.89,-0.45c-0.23,0.04 -0.42,0.23 -0.67,0.22c-2.52,0.61 -5.04,1.26 -7.56,1.89c-0.66,0.2 -1.32,0.38 -1.98,0.6c-1.43,0.46 -2.45,0.88 -3.86,1.42c-0.65,0.24 -1.31,0.48 -1.96,0.72c-0.52,0.2 -1.08,0.34 -1.57,0.61c-0.27,0.15 -0.46,0.42 -0.69,0.63c0.02,0.71 0.04,1.42 0.11,2.13c0.03,0.46 0.06,0.82 0.06,1.28c0.01,0.91 -0.04,1.83 -0.01,2.75c0.03,0.48 0.03,0.72 0.09,1.19c0.08,0.63 0.26,1.25 0.43,1.85c0,0 3.94,0.01 3.94,0.01z" fill="#003366" id="path15224" stroke="#003266" stroke-width="0.26"/>
   <path d="m34.07,31.22c-0.02,1.09 -0.04,2.17 -0.05,3.25c-0.04,1.89 -0.08,3.77 -0.11,5.66c-0.04,2.51 -0.05,5.03 -0.12,7.55c-0.06,2.48 -0.17,4.97 -0.26,7.45c-0.27,7.2 -0.18,5.2 -0.53,11.56c-0.13,2.37 -0.39,4.73 -0.53,7.1c0.04,0.39 -0.08,0.82 -0.15,1.21c-0.03,0.16 -0.16,0.33 -0.09,0.48c0.24,0.41 0.63,0.7 0.95,1.05c3.09,0.83 6.18,1.69 9.28,2.48c10.09,2.5 14.96,3.69 24.97,6.26c7.01,1.8 14.01,3.7 21.02,5.53c2.4,0.64 4.81,1.26 7.2,1.94c0.23,0.07 0.45,0.13 0.67,0.2c0.06,0.02 0.11,0.08 0.17,0.07c1.27,-0.22 2.53,-0.5 3.8,-0.75c-0.57,-1.93 -0.94,-3.91 -1.18,-5.9c-0.2,-2.21 -0.15,-4.44 -0.13,-6.67c0.02,-1.98 0.13,-3.97 0.02,-5.95c-0.05,-0.72 -0.11,-1.45 -0.16,-2.17c-0.15,-2.57 -0.23,-5.15 -0.23,-7.73c0.01,-2.31 0.03,-0.06 0,-2.16c-0.1,-1.79 -0.26,-3.58 -0.52,-5.35c-0.44,-2.18 -0.61,-4.4 -0.62,-6.62c-0.01,-0.58 0.03,-1.15 0.07,-1.73c0,-0.11 0.03,-0.22 0.02,-0.33c-0.02,-0.19 -0.23,-1.47 -0.25,-1.57c-0.04,-0.31 -0.09,-0.62 -0.13,-0.94c-0.03,-0.29 -0.05,-0.58 -0.09,-0.88c-0.1,-0.89 -0.25,-1.77 -0.32,-2.67c0,-0.16 -0.01,-0.33 -0.01,-0.49c0,0 -3.88,-0.2 -3.88,-0.2l0,0c0.01,0.17 0.03,0.34 0.04,0.51c0.04,0.51 0.06,0.76 0.14,1.28c0.07,0.47 0.17,0.94 0.24,1.41c0.03,0.14 0.21,1.73 0.22,1.84c0.03,0.28 0.07,0.56 0.09,0.84c0.08,0.91 0.01,1.81 0.06,2.72c0.09,2.24 0.32,4.47 0.67,6.68c0.21,1.76 0.33,3.53 0.51,5.29c0.18,3.31 0.4,6.6 0.5,9.91c-0.02,5.19 0.02,-0.3 -0.06,3.59c-0.03,1.5 0.05,3 0.03,4.5c-0.01,1.41 -0.03,2.83 -0.08,4.24c-0.01,0.43 -0.06,1.43 -0.04,1.92c0,0.2 0.03,0.4 0.05,0.6c0.18,0.85 0.39,1.69 0.55,2.54c0.22,1.11 0.39,2.23 0.62,3.35c1.32,0.09 2.64,0.16 3.96,0.26c0.1,0.01 -0.19,0.04 -0.28,0.02c-0.29,-0.03 -0.57,-0.1 -0.85,-0.16c-2.7,-0.58 -5.37,-1.25 -8.06,-1.83c-4.18,-0.95 -8.37,-1.87 -12.54,-2.84c-6.98,-1.63 -15.65,-3.74 -22.47,-5.55c-3.95,-1.04 -7.89,-2.1 -11.79,-3.27c-2.52,-0.75 -5,-1.65 -7.49,-2.48c-0.27,-0.15 -0.61,-0.22 -0.79,-0.47c-0.1,-0.12 0.04,-0.31 0.07,-0.47c0.08,-0.46 0.22,-0.92 0.29,-1.39c0,-0.03 -0.01,-0.06 -0.01,-0.09c-0.11,0.01 -0.06,0.02 -0.1,-0.21c-0.03,-0.18 -0.06,-0.36 -0.09,-0.54c-0.26,-2.07 -0.34,-4.15 -0.45,-6.23c-0.04,-1.66 -0.1,-3.32 -0.11,-4.99c-0.01,-2.2 0.01,-4.4 0.06,-6.6c0.05,-2.49 0.11,-4.97 0.24,-7.46c0.23,-4.23 0.63,-8.87 1.23,-13.11c0.16,-1.08 0.4,-2.15 0.59,-3.22c0,0 -3.76,-0.27 -3.76,-0.27z" fill="#003366" id="path15250" stroke="#003266" stroke-width="0.26"/>
   <path d="m112.47,67.07c-1.13,0.36 -2.2,0.87 -3.18,1.52c-0.15,0.1 -0.3,0.19 -0.45,0.29c-0.18,0.13 -0.35,0.26 -0.53,0.38c-0.68,0.46 -1.37,0.89 -2.02,1.39c-0.07,0.08 -0.16,0.16 -0.21,0.26c-0.33,0.69 0.45,1.28 0.93,1.66c0.13,0.08 0.26,0.17 0.4,0.24c0.85,0.41 1.8,0.66 2.71,0.89c0.88,0.23 1.74,0.41 2.62,0.61c1.01,0.22 2.01,0.44 3.03,0.55c1.54,0.17 3.09,0.19 4.63,0.18c1.55,-0.09 3.1,-0.26 4.62,-0.54c0.55,-0.1 1.74,-0.35 2.23,-0.45c1.22,-0.27 2.45,-0.47 3.67,-0.74c0.2,-0.05 0.41,-0.1 0.61,-0.15c0.37,-0.09 0.74,-0.18 1.1,-0.3c0.62,-0.21 1.19,-0.49 1.77,-0.76c1.29,-0.66 2.64,-1.23 4.02,-1.69c1.16,-0.37 2.32,-0.77 3.43,-1.28c0.81,-0.35 1.54,-0.83 2.3,-1.25c0.25,-0.15 0.59,-0.34 0.8,-0.55c0.06,-0.06 0.23,-0.3 0.29,-0.37c0.04,-0.07 0.08,-0.14 0.13,-0.2c0.08,-0.12 0.2,-0.22 0.28,-0.33c0.19,-0.28 0.31,-0.6 0.43,-0.91c0.22,-0.6 0.22,-1.21 0.12,-1.83c-0.01,-0.27 -0.16,-0.44 -0.31,-0.65c-0.25,-0.34 -0.43,-0.73 -0.79,-0.99c-0.15,-0.1 -0.32,-0.18 -0.48,-0.28c-0.23,-0.11 -0.66,-0.33 -0.92,-0.42c-0.8,-0.25 -1.67,-0.31 -2.51,-0.38c-1.32,-0.14 -2.65,-0.13 -3.98,-0.12c-0.2,0 -0.41,-0.02 -0.61,0c-0.6,0.07 -0.82,0.22 -1.39,0.47c-0.88,0.44 -1.75,0.96 -2.24,1.81c-0.2,0.36 -0.19,0.49 -0.26,0.87c-0.03,0.45 0.01,0.92 0.22,1.34c0.11,0.23 0.22,0.35 0.38,0.56c0.43,0.5 0.95,0.92 1.47,1.33c0.73,0.52 1.61,0.74 2.51,0.81c0.75,0.05 1.49,0.09 2.24,0.14c0.93,-0.01 1.86,-0.05 2.8,-0.06c0.34,-0.01 0.7,0.03 1.04,-0.07c0.08,-0.02 0.16,-0.06 0.24,-0.09c0.29,-0.2 0.14,-0.1 0.44,-0.3l-1.76,-0.35l0,0c-0.29,0.18 -0.15,0.1 -0.43,0.23c-0.41,0.09 -0.83,0.09 -1.25,0.09c-0.93,0.02 -1.85,0.07 -2.77,0.05c0.4,0.03 0.79,0.06 1.19,0.09c0.2,0.02 -0.4,-0.02 -0.59,-0.05c-0.67,-0.07 -1.32,-0.25 -1.88,-0.61c-0.51,-0.4 -1.01,-0.81 -1.46,-1.28c-0.14,-0.17 -0.27,-0.3 -0.38,-0.49c-0.21,-0.36 -0.26,-0.79 -0.24,-1.2c0.02,-0.12 0.03,-0.24 0.07,-0.36c0.32,-1.04 1.39,-1.61 2.34,-2.07c0.26,-0.1 0.51,-0.21 0.77,-0.28c0.58,-0.15 1.36,-0.11 1.96,-0.1c0.26,0 1,0.11 0.77,0c-0.28,-0.13 -0.62,-0.06 -0.93,-0.08c0.64,0.03 1.27,0.09 1.91,0.19c0.19,0.04 0.38,0.06 0.56,0.11c0.28,0.08 0.68,0.27 0.93,0.38c0.28,0.15 0.5,0.24 0.73,0.44c0.22,0.2 0.32,0.49 0.49,0.72c0.03,0.06 0.06,0.12 0.1,0.17c0.04,0.05 0.1,0.07 0.14,0.11c0.04,0.07 0.06,0.19 0.08,0.26c0.12,0.59 0.12,1.13 -0.09,1.7c-0.05,0.11 -0.09,0.22 -0.14,0.33c-0.19,0.38 -0.48,0.68 -0.71,1.03c-0.29,0.35 -0.66,0.61 -1.07,0.82c-0.73,0.44 -1.46,0.9 -2.26,1.24c-1.11,0.49 -2.26,0.89 -3.42,1.26c-1.37,0.49 -2.7,1.06 -3.99,1.72c-0.67,0.31 -1.01,0.49 -1.73,0.73c-1.74,0.56 -3.58,0.78 -5.37,1.17c-2.26,0.45 -4.52,0.9 -6.84,0.94c-0.4,0 -0.8,-0.06 -1.18,0c-0.23,0.04 0.9,0.02 0.68,0.08c-0.25,0.08 -0.53,-0.02 -0.8,-0.04c-1.04,-0.1 -2.06,-0.3 -3.07,-0.52c-1.76,-0.39 -3.58,-0.73 -5.23,-1.45c-0.14,-0.06 -0.26,-0.13 -0.4,-0.2c-0.3,-0.22 -0.96,-0.64 -0.98,-1.05c-0.01,-0.2 0.12,-0.29 0.23,-0.42c0.95,-0.74 2,-1.36 3,-2.04c0.98,-0.62 2.04,-1.13 3.18,-1.44l-1.74,-0.42z" fill="#003366" id="path15282" stroke="#003266" stroke-width="0.24"/>
   <path d="m114.68,68.32c3.05,-0.59 6.09,-1.23 9.15,-1.79c0.71,-0.14 1.43,-0.28 2.14,-0.41c0.62,-0.11 1.23,-0.22 1.85,-0.34c1.14,-0.22 2.29,-0.42 3.38,-0.85c0.19,-0.08 0.38,-0.18 0.57,-0.27c0.61,-0.32 1.18,-0.72 1.83,-0.96c0.28,-0.1 0.43,-0.12 0.72,-0.17c0.46,-0.05 0.88,-0.23 1.31,-0.38c1.34,-0.47 -0.57,0.22 0.67,-0.23c0.62,-0.33 1.22,-0.68 1.85,-0.98c0.29,-0.18 0.65,-0.24 0.94,-0.43c0.16,-0.13 0.08,-0.07 0.24,-0.17c0.12,-0.04 0.06,-0.03 0.19,-0.03c0,0 -1.84,-0.46 -1.84,-0.46l0,0c-0.15,0.07 -0.08,0.03 -0.21,0.12c-0.35,0.24 -0.77,0.36 -1.15,0.57c-0.61,0.31 -1.2,0.66 -1.84,0.94c-0.64,0.23 -1.29,0.47 -1.97,0.58c-0.12,0.03 -0.25,0.06 -0.37,0.1c-0.78,0.25 -1.44,0.75 -2.16,1.1c-0.19,0.08 -0.36,0.17 -0.55,0.24c-1.04,0.41 -2.14,0.63 -3.24,0.85c-1.19,0.23 -2.8,0.53 -3.97,0.75c-0.68,0.12 -1.37,0.24 -2.05,0.36c-2.43,0.46 -4.84,1 -7.28,1.38c0,0 1.79,0.48 1.79,0.48z" fill="#003366" id="path15290" stroke="#003266" stroke-width="0.25"/>
   <path d="m143.23,61.36c0.49,-0.63 0.96,-1.29 1.23,-2.04c0.16,-0.44 0.17,-0.65 0.25,-1.1c0.08,-0.98 0.01,-1.97 -0.02,-2.95c0.02,-0.54 -0.09,-1.05 -0.16,-1.58c-0.1,-0.64 -0.01,-0.18 -0.14,-0.81c-0.14,-0.61 -0.34,-1.2 -0.45,-1.82c-0.1,-0.52 -0.11,-0.7 -0.16,-1.22c-0.04,-0.42 -0.05,-0.85 -0.04,-1.27c0,-0.11 0,-0.23 0.01,-0.34c0,-0.08 -0.02,-0.18 0.01,-0.26c0.01,-0.05 0.07,-0.07 0.1,-0.1c0.37,-0.05 0.74,-0.02 1.11,0.01c0.1,0.01 0.41,0.03 0.31,0.03c-0.54,-0.03 -1.09,-0.06 -1.63,-0.09c0.1,0.05 0.22,0.08 0.31,0.16c0.3,0.25 0.57,0.71 0.76,1.04c0.31,0.54 0.56,1.11 0.77,1.69c0.31,0.9 0.45,1.85 0.6,2.79c0.21,0.88 0.41,1.76 0.58,2.65c0.1,0.64 0.32,1.24 0.44,1.87c0.05,0.4 0.28,0.69 0.61,0.9c0.74,0.04 1.47,0.13 2.21,0.11c0.13,0 0.25,-0.11 0.37,-0.17c0.57,-0.28 1.05,-0.68 1.55,-1.07c0.71,-0.53 1.49,-0.99 2.29,-1.38c0.86,-0.36 1.77,-0.61 2.69,-0.77c0.46,-0.11 0.92,-0.23 1.39,-0.3c0.31,-0.04 0.62,-0.05 0.93,-0.09c0.28,-0.13 0.54,-0.22 0.85,-0.21c0.71,0.07 1.97,-0.15 -1.19,-0.09c-0.07,0.01 0.14,0.08 0.19,0.13c0.07,0.08 0.12,0.18 0.17,0.26c0.22,0.41 0.23,0.68 0.05,1.09c-0.12,0.29 -0.08,0.21 -0.29,0.42c-0.56,0.47 -1.26,0.74 -1.93,1.02c-0.56,0.23 -1.16,0.38 -1.73,0.58c-0.17,0.06 -0.93,0.36 -1.1,0.42c-1.01,0.37 -1.88,1.05 -2.86,1.49c-0.39,0.11 -0.78,0.26 -1.16,0.41c0,0 1.88,0.46 1.88,0.46l0,0c0.4,-0.14 0.81,-0.26 1.2,-0.43c0.93,-0.51 1.81,-1.12 2.82,-1.47c0.41,-0.15 0.68,-0.26 1.09,-0.4c0.59,-0.2 1.19,-0.36 1.75,-0.61c0.7,-0.3 1.45,-0.59 1.98,-1.15c0.46,-0.63 0.58,-1.14 0.26,-1.87c-0.01,-0.03 -0.32,-0.61 -0.36,-0.62c-0.8,-0.17 -1.79,-0.24 -2.67,-0.2c-0.29,0.05 -0.55,0.19 -0.84,0.23c-0.78,0.09 -1.54,0.23 -2.3,0.42c-0.93,0.19 -1.86,0.44 -2.72,0.84c-0.8,0.42 -1.58,0.89 -2.3,1.44c-0.37,0.29 -0.74,0.59 -1.15,0.81c-0.84,0.44 -1.83,0.22 0.9,0.44c-0.18,0 -0.22,-0.04 -0.35,-0.15c-0.15,-0.12 -0.24,-0.22 -0.26,-0.43c-0.12,-0.63 -0.35,-1.23 -0.46,-1.87c-0.16,-0.88 -0.39,-1.76 -0.59,-2.64c-0.16,-0.96 -0.28,-1.93 -0.6,-2.85c-0.23,-0.6 -0.49,-1.17 -0.8,-1.74c-0.14,-0.26 -0.51,-0.93 -0.72,-1.18c-0.09,-0.1 -0.21,-0.17 -0.31,-0.25c-0.73,-0.08 -1.46,-0.16 -2.19,-0.23c-0.34,-0.04 -0.97,-0.08 -1.27,0.08c-0.09,0.05 -0.16,0.13 -0.23,0.19c-0.04,0.08 -0.09,0.16 -0.12,0.25c-0.01,0.09 0,0.18 0,0.27c-0.01,0.55 -0.01,1.1 0.06,1.65c0.11,1.04 0.28,2.07 0.59,3.07c0.13,0.57 0.05,0.18 0.14,0.79c0.07,0.51 0.17,1.02 0.16,1.54c0.04,0.97 0.12,1.93 0.04,2.9c-0.08,0.44 -0.08,0.6 -0.24,1.02c-0.27,0.73 -0.73,1.37 -1.23,1.96c0,0 1.92,0.32 1.92,0.32z" fill="#003366" id="path15294" stroke="#003266" stroke-width="0.26"/>
   <path d="m156.16,59.01c0.49,0.27 0.97,0.77 0.66,1.37c-0.04,0.08 -0.11,0.15 -0.16,0.23c-0.12,0.26 -0.56,0.37 -0.72,0.55c-0.08,0.09 -0.14,0.44 0.06,0.48c0.72,0.13 1.45,0.09 2.18,0.14c0.48,-0.01 0.94,-0.26 1.42,-0.26c0.06,0 0.13,0.02 0.19,0.03c-0.59,-0.04 -1.19,-0.08 -1.78,-0.12c0.03,0.02 0.07,0.02 0.08,0.05c0.03,0.06 0.03,0.12 0.03,0.18c-0.03,0.33 -0.2,0.55 -0.41,0.79c-0.03,0.19 -0.34,0.18 -0.4,0.35c-0.07,0.2 0.04,0.36 0.21,0.45c0.01,0 0.34,0.07 0.37,0.07c0.4,0.13 0.47,0.63 0.5,0.99c-0.02,0.08 -0.03,0.15 -0.07,0.22c-0.28,0.53 -1.05,0.73 -1.57,0.92c-0.41,0.14 -0.84,0.18 -1.26,0.26c-0.37,0.07 -0.73,0.18 -1.1,0.26c-1.03,0.14 -2.06,0.32 -3.1,0.42c-0.11,0.01 -0.22,0.02 -0.33,0.05c-0.76,0.19 0.18,-0.01 -0.4,0.16c-0.43,0.13 -1.12,0.12 -1.57,0.15c-0.38,0.05 -0.77,0.01 -1.15,0.04c-0.47,0.03 -0.93,0.09 -1.4,0.13c-0.54,0.04 -0.9,0.06 -1.43,0.09c-0.12,0.01 -0.25,0.02 -0.38,0.03c0,0 1.88,0.55 1.88,0.55l0,0c0.12,-0.01 0.23,-0.02 0.35,-0.03c1.32,-0.1 2.65,-0.22 3.97,-0.27c0.42,-0.03 0.94,-0.06 1.36,-0.13c0.33,-0.06 0.63,-0.25 0.97,-0.24c1.05,-0.12 2.09,-0.28 3.13,-0.44c0.78,-0.2 1.58,-0.32 2.35,-0.56c0.63,-0.24 1.36,-0.53 1.64,-1.2c0.04,-0.1 0.05,-0.21 0.08,-0.31c-0.04,-0.51 -0.14,-0.98 -0.51,-1.35c-0.1,-0.04 -0.26,-0.11 -0.37,-0.09c-0.06,0.01 -0.11,0.05 -0.16,0.08c-0.03,0.03 -0.1,0.13 -0.07,0.11c0.16,-0.1 0.23,-0.31 0.39,-0.4c0.28,-0.39 0.53,-0.8 0.43,-1.31c-0.02,-0.1 0,-0.25 -0.1,-0.27c-0.67,-0.15 -1.38,-0.14 -2.07,-0.21c-0.54,0.06 -1.06,0.24 -1.61,0.24c0.56,0.06 1.13,0.02 1.68,0.16c0.08,0.02 -0.09,0.15 -0.13,0.22c-0.01,0.01 0.01,-0.02 0.03,-0.03c0.07,-0.06 0.16,-0.11 0.23,-0.17c0.1,-0.08 0.2,-0.15 0.29,-0.24c0.08,-0.08 0.14,-0.17 0.21,-0.26c0.06,-0.1 0.13,-0.2 0.18,-0.31c0.3,-0.74 -0.07,-1.34 -0.67,-1.78c0,0 -1.95,0.21 -1.95,0.21z" fill="#003366" id="path15296" stroke="#003266" stroke-width="0.26"/>
   <path d="m114.46,44.01c0.04,0.37 0.08,0.74 0.1,1.11c0.09,1.36 0.15,3.33 0.18,4.62c0.08,3.13 0.07,6.27 0.05,9.4c-0.05,2.06 -0.07,4.13 -0.13,6.19c-0.02,0.61 -0.05,1.22 -0.05,1.84c0,0 3.93,0.14 3.93,0.14l0,0c-0.17,-0.53 -0.19,-1.25 -0.23,-1.78c-0.17,-2.06 -0.23,-4.13 -0.24,-6.19c-0.03,-3.14 -0.04,-6.27 0.04,-9.4c0.03,-1.28 0.1,-3.25 0.18,-4.6c0.03,-0.36 0.07,-0.73 0.1,-1.1c0,0 -3.93,-0.23 -3.93,-0.23z" fill="#003366" id="path15298" stroke="#003266" stroke-width="0.26"/>
   <path d="m115.24,77.15c0.18,2 0.24,4.02 0.46,6.02c0.17,1.38 0.33,2.78 0.35,4.18c-0.01,0.04 0.01,0.37 -0.05,0.46c-0.02,0.04 -0.29,-0.11 -0.34,-0.12c-0.13,0.05 -0.27,0.07 -0.41,0.08c-0.05,0 -0.1,-0.02 -0.15,-0.01c-0.06,0.01 -0.12,0.04 -0.18,0.07c-0.06,0.01 -0.13,0.02 -0.2,0.03c-1.28,0.32 -2.58,0.61 -3.87,0.91c-0.99,0.3 -1.9,0.78 -2.86,1.16c-1.14,0.44 -1.33,0.48 -2.48,0.83c-0.77,0.21 -1.54,0.4 -2.31,0.61c-0.14,0.03 -0.28,0.08 -0.42,0.11c-0.42,0.08 -1.25,0.18 -1.62,0.23c-0.79,0.1 -1.59,0.18 -2.38,0.21c-0.19,0.01 -0.52,-0.01 -0.72,0.05c-0.07,0.02 -0.13,0.07 -0.2,0.11c-0.04,0.03 -0.08,0.08 -0.13,0.09c-0.06,0.02 -0.13,-0.02 -0.19,-0.02c-0.09,0 -0.19,0 -0.28,0.01c-0.29,0 -0.54,0.04 -0.83,0.09c-0.2,0 -0.33,0.08 -0.48,0.21c0,0 3.88,0.88 3.88,0.88l0,0c0.14,0.03 0.27,0 0.4,-0.02c0.37,-0.05 0.76,-0.03 1.12,-0.14c0.09,-0.02 0.16,-0.08 0.24,-0.11c0.04,-0.01 0.07,-0.01 0.11,-0.01c1.03,-0.02 2.05,-0.24 3.08,-0.32c0.72,-0.1 1.09,-0.13 1.77,-0.28c0.13,-0.04 0.26,-0.08 0.4,-0.12c0.71,-0.22 1.42,-0.45 2.14,-0.67c1.07,-0.35 1.46,-0.47 2.54,-0.86c0.97,-0.36 1.92,-0.78 2.92,-1.05c1.32,-0.33 2.64,-0.63 3.98,-0.85c0.59,-0.12 -0.09,0 0.37,-0.05c0.2,-0.02 0.39,-0.1 0.59,-0.1c0.48,-0.27 0.5,-0.71 0.44,-1.21c-0.12,-1.41 -0.23,-2.83 -0.44,-4.23c-0.25,-1.71 -0.41,-3.46 -0.38,-5.19c0.01,-0.25 0.03,-0.5 0.05,-0.75c0,0 -3.92,-0.23 -3.92,-0.23z" fill="#003366" id="path15300" stroke="#003266" stroke-width="0.26"/>
   <path d="m35.05,51.99c-1.38,-0.85 -2.7,-1.81 -3.87,-2.94c-0.23,-0.21 -0.44,-0.45 -0.66,-0.67c-1.1,-1.36 -2.06,-2.83 -2.82,-4.41c-0.14,-0.27 -0.25,-0.54 -0.37,-0.82c-0.57,-1.3 -1.05,-2.65 -1.5,-4c-0.26,-0.69 -0.14,-0.36 -0.37,-1.01c0,0 -1.94,-0.01 -1.94,-0.01l0,0c0.24,0.65 0.12,0.32 0.37,1c0.48,1.36 0.98,2.71 1.55,4.03c0.12,0.28 0.24,0.56 0.38,0.84c0.78,1.58 1.74,3.09 2.82,4.48c0.22,0.23 0.43,0.47 0.66,0.7c1.16,1.13 2.47,2.07 3.79,2.99c0,0 1.96,-0.18 1.96,-0.18z" fill="#003366" id="path15304" stroke="#003266" stroke-width="0.26"/>
   <path d="m35.02,64.12c-0.21,-0.17 -0.44,-0.33 -0.64,-0.52c-0.9,-0.81 -1.69,-1.67 -2.5,-2.57c-0.97,-1.08 -2.13,-2.45 -3.04,-3.58c-0.47,-0.6 -0.93,-1.21 -1.39,-1.81c-1.93,-2.57 -3.71,-5.24 -5.47,-7.92c-0.98,-1.57 -1.9,-3.18 -2.61,-4.89c-0.28,-0.68 -0.51,-1.38 -0.71,-2.09c0,0 -1.94,-0.03 -1.94,-0.03l0,0c0.22,0.71 0.43,1.43 0.71,2.13c0.79,1.7 1.7,3.33 2.68,4.93c1.08,1.65 0.16,0.27 1.3,1.9c1.42,2.03 2.82,4.06 4.31,6.04c0.47,0.61 0.93,1.21 1.41,1.81c0.84,1.06 2.1,2.57 2.99,3.6c0.63,0.74 1.65,1.88 2.36,2.61c0.19,0.2 0.39,0.38 0.59,0.56c0,0 1.95,-0.17 1.95,-0.17z" fill="#003366" id="path15310" stroke="#003266" stroke-width="0.26"/>
   <path d="m23.42,38.46c-0.71,0.19 -1.43,0.38 -2.12,0.64c-0.18,0.07 -0.36,0.13 -0.52,0.22c-0.36,0.18 -0.77,0.49 -1.09,0.72c-0.24,0.17 -0.64,0.48 -0.92,0.61c-0.56,0.26 -1.18,0.38 -1.79,0.42c-0.98,-0.05 0.97,0.08 1.46,0.08c0.09,0 -0.16,-0.04 -0.24,-0.08c-0.23,-0.1 -0.43,-0.29 -0.62,-0.44c-0.32,-0.3 -0.78,-0.6 -1.04,-0.94c-0.07,-0.09 -0.12,-0.2 -0.17,-0.29c-0.27,-0.69 -0.24,-1.43 -0.21,-2.15c0,-0.66 0.39,-1.23 0.84,-1.69c0.36,-0.29 0.79,-0.34 1.24,-0.39c0.6,-0.05 0.32,-0.02 0.92,-0.11c0.14,-0.01 0.27,-0.04 0.41,-0.05c0.47,-0.05 0.96,-0.08 1.44,-0.07c0.19,0 0.78,0.04 0.59,0.03c-0.46,-0.03 -0.91,-0.05 -1.37,-0.07c0.35,0.05 0.7,0.09 1.03,0.21c0.25,0.1 0.49,0.24 0.72,0.37c0.42,0.22 0.61,0.58 0.78,0.99c0.14,0.39 0.17,0.79 0.15,1.2c-0.02,0.28 -0.14,0.55 -0.13,0.84c0,0.09 0.02,0.18 0.03,0.27c0.05,0.19 0.09,0.4 0.18,0.59c0.07,0.12 0.17,0.22 0.24,0.34c0,0 1.98,-0.01 1.98,-0.01l0,0c-0.03,-0.07 -0.09,-0.25 -0.15,-0.31c-0.02,-0.03 -0.06,-0.02 -0.09,-0.04c-0.13,-0.13 -0.12,-0.35 -0.19,-0.5c-0.01,-0.06 -0.03,-0.13 -0.03,-0.19c-0.01,-0.29 0.14,-0.57 0.14,-0.87c0.01,-0.44 -0.02,-0.88 -0.16,-1.31c-0.16,-0.46 -0.36,-0.91 -0.79,-1.19c-0.55,-0.34 0.14,0.08 -0.47,-0.27c-0.09,-0.05 -0.17,-0.11 -0.27,-0.16c-0.33,-0.15 -0.7,-0.21 -1.05,-0.27c-1.62,-0.13 -3.24,-0.34 -4.86,-0.05c-0.81,0.09 -1.6,0.09 -2.23,0.69c-0.45,0.54 -0.87,1.16 -0.86,1.89c-0.03,0.77 -0.03,1.56 0.21,2.3c0.05,0.12 0.1,0.25 0.17,0.36c0.15,0.26 0.4,0.42 0.62,0.63c0.07,0.06 0.13,0.13 0.2,0.2c0.07,0.06 0.14,0.11 0.21,0.16c0.21,0.17 0.42,0.35 0.63,0.51c0.08,0.06 0.15,0.16 0.25,0.17c1.59,0.23 1.5,0.22 2.37,0.16c1.06,-0.16 1.88,-0.5 2.71,-1.18c0.45,-0.3 0.61,-0.43 1.09,-0.66c0.83,-0.39 1.74,-0.59 2.63,-0.77c0,0 -1.87,-0.54 -1.87,-0.54z" fill="#003366" id="path15314" stroke="#003266" stroke-width="0.26"/>
   <path d="m20.93,35.47c-0.51,-1.95 -0.92,-3.93 -1.4,-5.88c-0.53,-2.12 -0.98,-4.25 -1.39,-6.39c-0.13,-0.75 -0.31,-1.49 -0.38,-2.24c-0.02,-0.09 -0.05,-0.33 -0.1,-0.42c-0.21,-0.32 -0.59,-0.37 -0.94,-0.4c-0.78,-0.06 -1.56,-0.09 -2.34,-0.14c-0.38,-0.01 -0.77,0.01 -1.16,0.02c-0.12,0.01 -0.25,-0.01 -0.37,0.01c-0.28,0.05 -0.37,0.13 -0.6,0.27c-0.07,0.06 -0.14,0.11 -0.2,0.18c-0.14,0.18 -0.27,0.48 -0.37,0.68c-0.24,0.48 -0.45,0.98 -0.67,1.47c-0.33,0.62 -0.48,1.29 -0.53,1.99c-0.03,0.57 0,1.15 0.01,1.72c0.06,0.6 -0.1,1.22 0.07,1.81c0.09,0.2 0.29,0.3 0.45,0.43c0.03,0.03 0.11,0.11 0.07,0.1c-0.02,0 -0.04,-0.02 -0.06,-0.03c-0.66,-0.48 0.06,0.09 1.48,-0.08c0.12,-0.01 -0.2,-0.13 -0.3,-0.21c-0.22,-0.18 -0.41,-0.42 -0.61,-0.63c-0.03,-0.02 -0.24,-0.21 -0.31,-0.21c-0.68,-0.06 -1.37,-0.09 -2.05,-0.1c-0.05,0 -0.19,0.05 -0.14,0.05c0.51,0.04 1.02,0.1 1.53,0.06c0.23,-0.02 -0.46,-0.09 -0.68,-0.13c-1.02,-0.23 -1.98,-0.64 -2.97,-0.95c-0.23,-0.07 -0.46,-0.17 -0.71,-0.19c-2.42,-0.22 -1.83,-0.61 -2.74,0.22c-0.32,0.69 -0.36,1.44 -0.32,2.18c0.09,0.6 0.38,1.1 0.84,1.49c0.84,0.49 1.8,0.79 2.75,1c1.54,0.25 3.09,0.26 4.64,0.2c0.33,-0.01 0.65,-0.01 0.97,-0.01c0.06,0 0.12,0.01 0.17,0c0.07,-0.02 0.13,-0.06 0.2,-0.09c0.33,-0.28 0.65,-0.61 0.72,-1.06c0.02,-0.11 0.02,-0.23 0.03,-0.35c0.05,-0.66 -0.07,-1.11 -0.44,-1.64c-0.22,-0.34 -0.42,-0.61 -0.78,-0.81c0,0 -1.96,0.28 -1.96,0.28l0,0c0.06,0 0.12,-0.02 0.17,-0.01c0.29,0.06 0.44,0.4 0.6,0.61c0.38,0.51 0.5,0.75 0.45,1.42c-0.01,0.1 -0.01,0.2 -0.03,0.3c-0.07,0.35 -0.36,0.64 -0.68,0.76c-0.43,0.03 -0.86,0.02 -1.3,0.04c-0.39,0.02 -0.78,0.03 -1.17,0.03c-0.15,0 -0.61,-0.03 -0.46,-0.01c0.26,0.03 2.36,0.19 0.78,0.05c-0.19,-0.03 -0.38,-0.05 -0.57,-0.09c-0.74,-0.17 -1.44,-0.48 -2.13,-0.78c-0.06,-0.04 -0.14,-0.06 -0.2,-0.11c-0.35,-0.26 -0.54,-0.7 -0.64,-1.12c-0.03,-0.64 -0.06,-1.31 0.28,-1.89c0.63,-0.35 0.63,-0.27 -1.07,-0.34c-0.25,-0.01 0.49,0.09 0.73,0.16c0.32,0.09 0.63,0.21 0.94,0.32c1.43,0.49 0.65,0.23 2,0.67c1.36,0.33 0.57,0.18 2.97,0.29c0.04,0 0.18,-0.01 0.13,-0.02c-0.6,-0.06 -1.21,-0.08 -1.82,-0.14c-0.1,-0.01 0.47,-0.08 0.3,0.04c0.23,0.2 0.41,0.44 0.63,0.66c0.09,0.09 0.17,0.23 0.29,0.26c2,0.48 1.56,0.64 2.44,0.22c0.03,-0.06 0.07,-0.12 0.08,-0.18c0.08,-0.35 -0.24,-0.55 -0.52,-0.66c-0.11,-0.18 -0.09,-0.35 -0.09,-0.55c-0.01,-0.38 -0.02,-0.76 -0.01,-1.14c0,-0.57 -0.01,-1.13 0,-1.7c0.05,-0.66 0.19,-1.3 0.49,-1.89c0.22,-0.49 0.43,-0.99 0.68,-1.46c0.11,-0.19 0.21,-0.4 0.38,-0.55c0.05,-0.05 0.11,-0.08 0.17,-0.12c0.08,-0.03 0.16,-0.07 0.24,-0.09c0.25,-0.07 0.43,-0.06 0.69,-0.07c0.39,-0.01 0.77,-0.02 1.15,-0.01c-0.48,-0.04 -0.96,-0.07 -1.44,-0.11c-0.14,-0.02 0.28,0.01 0.42,0.02c0.09,0 0.19,0.02 0.28,0.03c0.06,0.01 0.13,0 0.18,0.03c0.07,0.05 0.1,0.3 0.11,0.34c0.08,0.76 0.27,1.51 0.44,2.26c0.45,2.14 0.95,4.27 1.45,6.4c0.46,1.95 0.88,3.9 1.28,5.86c0,0 1.97,0.07 1.97,0.07z" fill="#003366" id="path15324" stroke="#003266" stroke-width="0.26"/>
   <path d="m3.73,30.66c0.48,0.73 1.16,1.32 1.91,1.78c0.4,0.25 0.65,0.33 1.08,0.5c1.26,0.44 2.61,0.44 3.92,0.37c0.55,-0.03 1.09,-0.03 1.63,-0.04c0.12,0 0.24,0.03 0.35,0c0.14,-0.03 0.25,-0.11 0.37,-0.17c0.69,-0.47 0.85,-0.9 0.83,-1.71c-0.05,-0.67 -0.22,-1.24 -0.59,-1.79c-0.03,-0.04 -0.06,-0.07 -0.08,-0.11c0,0 -1.98,0.18 -1.98,0.18l0,0c0.02,0 0.05,0 0.08,0c0.03,0.04 0.24,0.3 0.26,0.33c0.23,0.38 0.31,0.84 0.35,1.28c0.01,0.71 -0.09,0.99 -0.77,1.35c-0.11,0.02 -0.22,0.06 -0.34,0.08c-0.11,0.01 -0.23,0 -0.35,0c-0.54,0.01 -1.09,0.02 -1.64,0.05c-0.86,0.03 -1.62,-0.08 1.05,0.14c0.1,0.01 -0.21,0 -0.31,-0.01c-0.13,-0.01 -0.26,-0.03 -0.38,-0.06c-0.16,-0.04 -0.32,-0.08 -0.48,-0.12c-0.34,-0.12 -0.77,-0.27 -1.09,-0.44c-0.73,-0.39 -1.36,-0.95 -1.85,-1.61c0,0 -1.97,0 -1.97,0z" fill="#003366" id="path15326" stroke="#003266" stroke-width="0.26"/>
   <path d="m4.02,32.2c0.07,0.75 0.26,1.53 0.8,2.09c0.33,0.35 0.63,0.5 1.04,0.74c1.35,0.64 2.89,0.59 4.36,0.49c0.51,-0.05 1.02,0.01 1.51,-0.12c0.3,-0.08 0.33,-0.11 0.58,-0.25c0.06,-0.07 0.14,-0.13 0.19,-0.2c0.11,-0.17 0.18,-0.37 0.28,-0.54c0.05,-0.07 0.11,-0.14 0.15,-0.21c0.11,-0.16 0.2,-0.33 0.3,-0.49c0.23,-0.38 0.42,-0.8 0.52,-1.23c-0.07,-0.28 -0.01,-0.16 -0.18,-0.36c0,0 -1.97,0.26 -1.97,0.26l0,0c0.13,-0.08 0.06,-0.06 0.17,-0.09c-0.09,0.41 -0.27,0.79 -0.48,1.14c-0.15,0.24 -0.31,0.47 -0.45,0.72c-0.09,0.14 -0.17,0.32 -0.28,0.44c-0.05,0.05 -0.11,0.08 -0.16,0.11c-0.24,0.1 -0.29,0.13 -0.55,0.18c-0.49,0.08 -1,0.04 -1.5,0.09c-0.14,0.01 -0.28,0.02 -0.42,0.03c-0.13,0 -0.52,-0.01 -0.39,0c0.52,0.07 1.05,0.09 1.58,0.13c0.12,0.01 -0.25,-0.01 -0.37,-0.02c-0.47,-0.07 -0.52,-0.11 -0.97,-0.27c-0.36,-0.19 -0.72,-0.36 -1.03,-0.63c-0.54,-0.48 -0.74,-1.19 -0.77,-1.89c0,0 -1.96,-0.12 -1.96,-0.12z" fill="#003366" id="path15330" stroke="#003266" stroke-width="0.26"/>
   <path d="m5.15,35.18c0.25,0.66 0.76,1.16 1.23,1.67c0.1,0.1 0.19,0.22 0.3,0.31c0.14,0.11 0.3,0.19 0.44,0.29c0.2,0.08 0.39,0.17 0.58,0.24c1.42,0.47 3.21,0.56 4.63,0.56c0.59,-0.04 1.18,-0.01 1.75,-0.1c0.47,-0.07 0.94,-0.1 1.41,-0.1c0,0 -1.9,-0.57 -1.9,-0.57l0,0c-0.47,0.02 -0.93,0.07 -1.4,0.13c-0.57,0.04 -1.15,0.06 -1.72,0.07c-0.59,-0.02 -1.59,-0.06 0.98,0.09c0.18,0.01 -0.36,-0.03 -0.53,-0.06c-0.64,-0.09 -1.27,-0.22 -1.86,-0.44c-0.15,-0.08 -0.3,-0.13 -0.43,-0.23c-0.07,-0.04 -0.66,-0.66 -0.68,-0.68c-0.33,-0.35 -0.68,-0.7 -0.83,-1.18c0,0 -1.97,0 -1.97,0z" fill="#003366" id="path15332" stroke="#003266" stroke-width="0.26"/>
   <path d="m42.75,79.07c-0.34,1.38 -0.78,2.73 -1.13,4.1c-0.08,0.3 -0.3,1.28 -0.38,1.64c-0.25,0.92 -0.37,1.87 -0.57,2.81c-0.21,0.74 -0.18,1.53 -0.19,2.3c0,0.4 0,1.17 0,1.59c0,0.2 0,0.4 -0.01,0.6c0,0.35 -0.01,0.52 0.03,0.88c0.07,0.6 0.2,1.2 0.28,1.8c0.09,0.5 0.04,1.01 0.15,1.51c0.08,0.33 0.24,0.62 0.43,0.9c0.7,1.07 0.92,2.37 1.25,3.58c0.08,0.19 0.15,0.38 0.24,0.56c0.15,0.28 0.5,0.79 0.69,1.05c0.23,0.33 0.47,0.63 0.77,0.9c0.76,0.46 1.46,0.25 2.47,0.28c0.07,0 0.13,-0.02 0.19,-0.04c0.13,-0.05 0.27,-0.17 0.38,-0.26c0.42,-0.17 0.81,-0.38 1.09,-0.75c0.02,-0.06 0.05,-0.13 0.07,-0.2c0.02,-0.06 0.06,-0.31 0.07,-0.38c0.05,-0.19 0.12,-0.37 0.15,-0.57c0.04,-0.52 0.09,-1.04 0.18,-1.56c0.07,-0.28 0.1,-0.58 0.18,-0.87c0.05,-0.17 0.13,-0.32 0.2,-0.48c0.24,-0.46 0.29,-0.84 0.29,-1.35c-0.02,-0.63 -0.06,-1.26 0.01,-1.89c0.09,-0.64 0.21,-1.28 0.23,-1.93c0.01,-0.51 -0.05,-1.03 0.03,-1.54c0.15,-0.69 0.34,-1.37 0.5,-2.06c0.14,-0.66 0.52,-1.22 0.8,-1.82c0.4,-0.84 0.72,-1.71 1.04,-2.58c0.17,-0.35 0.3,-0.71 0.48,-1.06c0.1,-0.18 0.22,-0.36 0.32,-0.54c0.25,-0.48 -0.02,0.02 0.23,-0.36c0.08,-0.12 0.08,-0.2 0.19,-0.29c0.33,-0.33 -0.16,0.25 0.26,-0.26c0.28,-0.3 0.43,-0.65 0.45,-1.05c0,-0.05 0.01,-0.1 0.01,-0.15c0,0 -1.97,-0.15 -1.97,-0.15l0,0c-0.01,0.05 -0.02,0.11 -0.02,0.17c-0.01,0.34 -0.18,0.6 -0.42,0.85c-0.28,0.28 -0.5,0.6 -0.67,0.97c-0.3,0.54 -0.59,1.08 -0.81,1.66c-0.29,0.86 -0.6,1.73 -1.03,2.54c-0.31,0.61 -0.66,1.21 -0.82,1.89c-0.16,0.69 -0.33,1.39 -0.5,2.08c-0.01,0.11 -0.04,0.22 -0.05,0.33c-0.04,0.41 0.05,0.83 0.01,1.24c-0.01,0.65 -0.1,1.28 -0.21,1.91c-0.02,0.14 -0.05,0.27 -0.06,0.41c0,0.1 0.01,0.2 0.01,0.3c0.01,0.4 0.01,0.81 0.02,1.21c0,0.46 -0.06,0.83 -0.28,1.24c-0.19,0.45 -0.31,0.92 -0.38,1.42c-0.09,0.51 -0.13,1.03 -0.18,1.55c-0.05,0.19 -0.11,0.38 -0.16,0.57c0,0.01 -0.05,0.28 -0.06,0.31c-0.02,0.04 -0.04,0.08 -0.06,0.12c-0.31,0.3 -0.71,0.45 -1.08,0.67c-0.17,0.09 -0.15,0.1 -0.34,0.13c-0.07,0.01 -0.25,0.01 -0.19,0.02c0.58,0.06 1.17,0.08 1.76,0.13c0.05,0.01 -0.11,0.03 -0.17,0.02c-0.07,0 -0.13,-0.02 -0.2,-0.04c-0.07,-0.04 -0.16,-0.08 -0.23,-0.13c-0.37,-0.31 -0.66,-0.77 -0.92,-1.16c-0.12,-0.17 -0.24,-0.33 -0.34,-0.51c-0.09,-0.16 -0.15,-0.34 -0.23,-0.51c-0.34,-1.11 -0.56,-2.26 -1.03,-3.33c-0.05,-0.12 -0.13,-0.24 -0.2,-0.36c-0.14,-0.18 -0.2,-0.23 -0.31,-0.46c-0.27,-0.56 -0.22,-1.2 -0.31,-1.8c-0.13,-1.08 -0.35,-2.15 -0.31,-3.25c-0.01,-1.28 -0.06,-2.57 0.21,-3.83c0.19,-0.93 0.36,-1.87 0.54,-2.81c0.1,-0.53 0.21,-1.11 0.33,-1.62c0.34,-1.4 0.78,-2.76 1.24,-4.12c0,0 -1.96,-0.17 -1.96,-0.17z" fill="#003366" id="path15336" stroke="#003266" stroke-width="0.26"/>
   <path d="m74.03,86.85c0.48,2.7 0.52,5.46 0.53,8.19c0,0.82 -0.05,1.64 -0.22,2.45c-0.07,0.35 -0.18,0.69 -0.26,1.04c-0.11,0.44 -0.14,0.89 -0.21,1.34c-0.06,0.36 -0.16,0.71 -0.24,1.07c-0.13,0.87 0.07,1.76 0.28,2.6c0.21,0.74 0.45,1.47 0.61,2.23c0.05,0.52 0.23,1.01 0.44,1.48c0.3,0.5 0.77,0.96 1.33,1.18c0.11,0.05 0.23,0.07 0.35,0.1c1.01,0.12 1.04,0.14 2.68,0.14c0.2,0 0.51,-0.13 0.67,-0.25c0.21,-0.15 0.27,-0.27 0.42,-0.48c0.32,-0.64 0.5,-1.33 0.56,-2.04c0.04,-0.69 -0.02,-1.38 0.01,-2.06c0.06,-0.72 0.1,-1.44 0.16,-2.16c0.04,-0.64 0.14,-1.27 0.19,-1.91c0.04,-0.28 0.1,-0.58 0.22,-0.85c0.12,-0.23 0.26,-0.45 0.38,-0.67c0.29,-0.43 0.52,-0.9 0.79,-1.34c0.23,-0.38 0.38,-0.57 0.65,-0.94c0.66,-1 1.1,-2.11 1.67,-3.15c0.07,-0.11 0.13,-0.21 0.2,-0.31c0.06,-0.09 0.14,-0.17 0.2,-0.26c0.19,-0.28 0.35,-0.58 0.54,-0.85c0.29,-0.55 0.55,-1.12 0.9,-1.64c0,0 -1.95,-0.28 -1.95,-0.28l0,0c-0.31,0.54 -0.58,1.1 -0.9,1.63c-0.32,0.48 -0.61,0.97 -0.92,1.45c-0.55,1.04 -0.93,2.16 -1.64,3.11c-0.22,0.3 -0.5,0.66 -0.7,0.97c-0.27,0.44 -0.47,0.92 -0.77,1.34c-0.04,0.07 -0.36,0.62 -0.41,0.73c-0.13,0.28 -0.17,0.63 -0.22,0.92c-0.05,0.64 -0.15,1.27 -0.18,1.91c-0.07,0.72 -0.1,1.44 -0.16,2.16c-0.04,0.69 0.03,1.37 -0.01,2.05c-0.07,0.66 -0.22,1.31 -0.55,1.88c-0.2,0.22 -0.37,0.37 -0.67,0.44c-0.12,0.02 -0.47,0.03 -0.35,0.05c0.78,0.13 2.21,0.16 1.13,0.13c-0.11,-0.02 -0.23,-0.02 -0.34,-0.04c-0.54,-0.13 -0.99,-0.54 -1.31,-0.97c-0.22,-0.45 -0.39,-0.91 -0.45,-1.41c-0.15,-0.77 -0.42,-1.5 -0.63,-2.25c-0.2,-0.8 -0.39,-1.64 -0.27,-2.47c0.08,-0.36 0.17,-0.72 0.23,-1.09c0.07,-0.44 0.1,-0.88 0.22,-1.31c0.09,-0.35 0.17,-0.7 0.23,-1.06c0.14,-0.83 0.15,-1.67 0.14,-2.5c-0.06,-2.75 -0.14,-5.5 -0.41,-8.24c0,0 -1.96,-0.06 -1.96,-0.06z" fill="#003366" id="path15342" stroke="#003266" stroke-width="0.26"/>
   <path d="m41.44,100.67c-1.07,0.41 -2.13,0.87 -3.12,1.46c-0.31,0.18 -1.11,0.69 -1.43,0.89c-0.62,0.46 -1.27,0.91 -1.78,1.5c-0.24,0.29 -0.31,0.44 -0.5,0.76c-0.53,0.92 -0.91,1.9 -1.26,2.89c-0.03,0.11 -0.15,0.47 -0.15,0.61c0,0.32 0.23,0.88 0.4,1.14c0.13,0.18 0.28,0.34 0.42,0.51c0.16,0.15 0.32,0.32 0.5,0.46c0.92,0.71 2.01,1.04 3.15,1.14c0.95,0.08 1.9,0.12 2.85,0.19c1.07,-0.01 2.14,0.02 3.21,-0.06c0.49,-0.04 0.94,-0.12 1.43,-0.19c1.1,-0.23 2.08,-0.77 2.94,-1.49c0.15,-0.1 0.3,-0.19 0.45,-0.29c0.04,-0.03 0.93,-0.61 0.97,-0.63c0.59,-0.34 1.24,-0.6 1.85,-0.9c0.6,-0.26 1.21,-0.52 1.8,-0.8c0.31,-0.14 0.61,-0.27 0.9,-0.45c0.49,-0.38 0.44,-0.98 0.43,-1.54c-0.01,-0.65 -0.03,-1.32 -0.27,-1.93c-0.17,-0.41 -0.33,-0.62 -0.58,-0.97c-0.38,-0.43 -0.8,-0.87 -1.34,-1.1c-0.06,-0.03 -0.97,-0.34 -0.99,-0.34c-0.58,-0.23 -1.17,-0.46 -1.79,-0.57c-0.83,-0.14 -1.69,-0.13 -2.53,-0.19c-0.21,-0.02 -0.38,0.07 -0.57,0.13c0,0 1.91,0.5 1.91,0.5l0,0c0.18,-0.04 0.35,-0.06 0.54,-0.05c-0.55,-0.04 -1.09,-0.08 -1.63,-0.12c-0.11,-0.01 0.23,0.01 0.35,0.02c0.63,0.07 1.22,0.27 1.8,0.52c0.17,0.06 0.35,0.13 0.52,0.19c0.3,0.1 0.5,0.12 0.77,0.25c0.4,0.2 0.71,0.52 1.03,0.82c0.2,0.28 0.43,0.56 0.57,0.87c0.26,0.59 0.25,1.23 0.26,1.86c0,0.3 0.05,0.71 -0.12,0.98c-0.08,0.12 -0.17,0.16 -0.29,0.25c-0.84,0.48 -1.75,0.83 -2.63,1.24c-0.44,0.21 -0.88,0.4 -1.31,0.62c-0.71,0.36 -1.35,0.82 -2.02,1.26c-0.87,0.67 -1.75,1.16 -2.86,1.34c-1.52,0.2 -3.06,0.25 -4.6,0.21c0.27,0.02 1.07,0.12 0.81,0.07c-0.33,-0.05 -0.66,-0.05 -0.98,-0.11c-0.98,-0.16 -1.88,-0.6 -2.61,-1.28c-0.13,-0.14 -0.28,-0.28 -0.39,-0.43c-0.09,-0.14 -0.38,-0.77 -0.39,-0.96c0,-0.12 0.1,-0.48 0.13,-0.57c0.33,-0.97 0.71,-1.94 1.24,-2.82c0.21,-0.32 0.25,-0.41 0.5,-0.7c0.5,-0.56 1.12,-1.01 1.72,-1.44c0.44,-0.28 0.97,-0.63 1.41,-0.88c1.01,-0.57 2.07,-1.03 3.16,-1.4c0,0 -1.88,-0.47 -1.88,-0.47z" fill="#003366" id="path15346" stroke="#003266" stroke-width="0.26"/>
   <path d="m73.2,105.46c-0.76,0.35 -1.43,0.84 -2.02,1.44c-0.4,0.4 -0.67,0.71 -0.92,1.21c-0.1,0.18 -0.15,0.37 -0.23,0.56c-0.18,0.8 -0.16,1.66 0.15,2.43c0.06,0.15 0.13,0.28 0.2,0.42c0.4,0.74 0.89,1.46 1.55,1.99c0.52,0.4 0.77,0.48 1.37,0.77c2.01,0.67 4.1,1 6.2,1.24c1.84,0.14 3.88,0.38 5.75,0.05c0.39,-0.07 0.83,-0.21 1.21,-0.32c0.6,-0.17 1.1,-0.52 1.6,-0.87c0.65,-0.45 0.12,-0.05 0.74,-0.55c0.28,-0.23 0.57,-0.54 0.6,-0.93c0.05,-0.59 -0.18,-1.17 -0.37,-1.71c-0.44,-0.94 -1.01,-1.83 -1.76,-2.54c-0.53,-0.4 -1.12,-0.7 -1.73,-0.94c-0.72,-0.23 -1.39,-0.58 -2.12,-0.78c-0.15,-0.03 -0.31,-0.06 -0.46,-0.1c-1.12,-0.18 -2.26,-0.28 -3.4,-0.19c0,0 1.91,0.55 1.91,0.55l0,0c0.11,0 0.18,-0.01 0.3,-0.01c0.07,0 0.28,0.01 0.21,0c-0.55,-0.05 -1.1,-0.08 -1.65,-0.12c-0.11,-0.01 0.21,0.01 0.31,0.01c0.14,0.02 0.27,0.03 0.4,0.05c0.38,0.06 0.52,0.08 0.89,0.19c0.57,0.18 1.11,0.45 1.68,0.65c0.12,0.04 0.25,0.07 0.37,0.12c0.17,0.06 0.34,0.17 0.5,0.26c0.28,0.14 0.58,0.26 0.84,0.44c0.1,0.08 0.2,0.15 0.29,0.24c0.45,0.42 0.91,1.09 1.22,1.62c0.1,0.18 0.18,0.36 0.27,0.55c0.18,0.45 0.4,0.99 0.35,1.5c-0.03,0.33 -0.33,0.57 -0.55,0.77c-0.71,0.53 -1.44,1.06 -2.31,1.3c-0.45,0.13 -0.72,0.21 -1.18,0.29c-0.5,0.07 -1.13,0.11 -1.62,0.12c-0.36,0.01 -0.72,-0.04 -1.07,0c-0.21,0.03 0.41,0.04 0.62,0.05c-0.38,-0.04 -0.77,-0.07 -1.15,-0.12c-1.69,-0.21 -3.36,-0.56 -5,-1.04c-0.55,-0.23 -0.86,-0.33 -1.34,-0.68c-0.66,-0.48 -1.14,-1.17 -1.52,-1.87c-0.44,-0.89 -0.61,-1.62 -0.38,-2.62c0.07,-0.17 0.12,-0.34 0.2,-0.5c0.62,-1.17 1.77,-1.96 2.94,-2.48c0,0 -1.89,-0.45 -1.89,-0.45z" fill="#003366" id="path15348" stroke="#003266" stroke-width="0.26"/>
   <path d="m54.5,43.44c-0.31,0.01 -0.63,0 -0.95,0.04c-1.24,0.15 -2.04,0.38 -3.25,0.82c-1.23,0.44 -2.36,0.95 -3.51,1.58c-0.46,0.25 -0.89,0.54 -1.34,0.81c-0.94,0.72 -1.82,1.53 -2.28,2.64c-0.38,0.92 -0.35,1.88 -0.33,2.85c0.04,1.11 0.21,2.21 0.55,3.28c0.21,0.69 0.44,1.28 0.89,1.86c0.22,0.3 0.51,0.55 0.77,0.82c0.34,0.24 0.67,0.52 1.04,0.74c0.83,0.49 2,0.97 2.88,1.33c1.15,0.48 2.32,0.92 3.49,1.34c1.31,0.43 2.55,0.51 3.96,0.52c0.3,0 0.86,-0.23 1.1,-0.4c0.17,-0.12 0.31,-0.29 0.46,-0.43c0.13,-0.19 0.28,-0.36 0.39,-0.56c0.36,-0.61 0.48,-1.03 0.68,-1.74c0.37,-1.26 0.6,-2.54 0.84,-3.83c0.35,-2.02 0.43,-4.07 0.42,-6.11c-0.01,-0.66 0.01,-1.34 -0.23,-1.97c-0.34,-0.68 -0.97,-1.14 -1.51,-1.66c-0.7,-0.71 -1.5,-1.32 -2.25,-1.99c0,0 -1.93,0.14 -1.93,0.14l0,0c0.53,0.46 0.26,0.22 0.83,0.73c0.25,0.22 0.54,0.42 0.79,0.64c0.1,0.09 0.19,0.19 0.28,0.29c0.11,0.1 0.23,0.2 0.34,0.31c0.51,0.5 1.1,0.94 1.48,1.55c0.28,0.57 0.23,1.23 0.27,1.85c0.08,2.03 0.02,4.06 -0.33,6.06c-0.24,1.27 -0.47,2.55 -0.86,3.78c-0.2,0.63 -0.37,1.12 -0.72,1.66c-0.11,0.17 -0.26,0.32 -0.39,0.49c-0.4,0.32 -0.44,0.41 -0.94,0.54c-0.18,0.05 -0.74,0.03 -0.56,0.08c0.4,0.12 0.83,0.11 1.25,0.12c0.51,0.02 -2.24,-0.23 -1.51,-0.31c-1.19,-0.4 -2.38,-0.83 -3.55,-1.31c-0.89,-0.36 -2,-0.8 -2.84,-1.28c-0.35,-0.2 -0.68,-0.46 -1.02,-0.69c-0.25,-0.25 -0.53,-0.47 -0.75,-0.75c-0.45,-0.55 -0.68,-1.12 -0.9,-1.78c-0.35,-1.04 -0.51,-2.12 -0.54,-3.21c-0.01,-0.92 -0.04,-1.84 0.32,-2.7c0.44,-1.07 1.29,-1.83 2.19,-2.51c0.43,-0.27 0.85,-0.55 1.3,-0.8c2.1,-1.15 4.42,-2.05 6.83,-2.26c0.33,-0.03 0.67,-0.01 1,-0.02c0,0 -1.86,-0.56 -1.86,-0.56z" fill="#003366" id="path15354" stroke="#003266" stroke-width="0.26"/>
   <path d="m69.94,49.32c-1.31,1.27 -2.76,2.52 -3.52,4.23c-0.13,0.3 -0.21,0.62 -0.32,0.93c-0.38,1.54 -0.45,3.13 -0.46,4.71c-0.01,0.36 -0.01,0.72 0,1.08c0.01,0.33 0.04,0.66 0.06,0.99c0.09,0.63 0.12,1.33 0.43,1.92c0.22,0.42 0.65,0.75 0.99,1.07c1.32,1.12 2.86,1.92 4.43,2.6c0.63,0.26 1.25,0.54 1.92,0.66c0.81,0.13 2.98,0.17 3.04,0.17c1.62,-0.28 3.11,-0.95 4.19,-2.23c0.19,-0.24 0.34,-0.5 0.51,-0.75c0.1,-0.25 0.22,-0.49 0.3,-0.75c0.22,-0.73 0.18,-1.52 0.14,-2.27c-0.03,-0.52 -0.08,-1.05 -0.11,-1.57c-0.06,-1.12 -0.12,-2.24 -0.36,-3.33c-0.14,-0.62 -0.28,-0.99 -0.47,-1.58c-0.29,-0.86 -0.65,-1.69 -1.08,-2.48c-0.2,-0.32 -0.37,-0.67 -0.63,-0.95c-0.48,-0.52 -1.06,-0.88 -1.64,-1.25c-0.23,-0.09 -0.46,-0.21 -0.69,-0.29c-0.28,-0.1 -0.89,-0.25 -1.22,-0.28c-1.33,-0.12 -2.1,-0.2 -3.27,-0.12c-1.08,-0.03 0.79,0.07 1.19,0.07c0.14,0 -0.27,-0.05 -0.41,-0.07c-0.38,-0.07 -0.75,-0.15 -1.13,-0.22c-0.39,-0.08 -0.21,-0.05 -0.56,-0.1c0,0 -1.95,0.31 -1.95,0.31l0,0c0.36,0.04 0.17,0.01 0.57,0.07c1.37,0.27 2.75,0.6 4.17,0.49c0.63,-0.03 2.2,0.03 -0.52,-0.13c-0.19,-0.01 0.38,0.03 0.56,0.06c0.68,0.12 0.69,0.16 1.35,0.39c0.95,0.58 1.7,1.04 2.22,2.05c0.43,0.79 0.83,1.59 1.13,2.43c0.23,0.64 0.32,0.86 0.48,1.54c0.25,1.08 0.3,2.19 0.35,3.3c0.02,0.31 0.09,1.24 0.11,1.56c0.04,0.71 0.08,1.46 -0.13,2.15c-0.07,0.24 -0.18,0.46 -0.28,0.69c-0.16,0.23 -0.3,0.48 -0.49,0.69c-1.06,1.22 -2.59,1.85 -4.17,2.02c0.41,0.04 0.82,0.07 1.23,0.12c0.16,0.03 -0.34,-0.01 -0.51,-0.03c-0.68,-0.08 -1.3,-0.33 -1.93,-0.6c-0.34,-0.13 -1.08,-0.43 -1.39,-0.58c-0.28,-0.14 -0.54,-0.29 -0.81,-0.44c-0.78,-0.43 -1.55,-0.87 -2.21,-1.47c-0.56,-0.52 -0.24,-0.21 -0.72,-0.7c-0.08,-0.08 -0.19,-0.15 -0.26,-0.25c-0.34,-0.52 -0.39,-1.24 -0.48,-1.83c-0.03,-0.32 -0.07,-0.64 -0.08,-0.97c-0.02,-0.53 -0.01,-1.74 0,-2.25c0.03,-0.77 0.09,-1.59 0.22,-2.36c0.06,-0.37 0.16,-0.72 0.24,-1.08c0.11,-0.3 0.19,-0.6 0.32,-0.89c0.76,-1.68 2.19,-2.94 3.55,-4.12c0,0 -1.9,-0.36 -1.9,-0.36z" fill="#003366" id="path15356" stroke="#003266" stroke-width="0.26"/>
   <path d="m46.79,48.31c-0.25,0.01 -1,-0.06 -0.76,0.03c0.59,0.2 1.22,0.22 1.83,0.34c0.74,0.13 1.48,0.27 2.22,0.41c1.81,0.34 3.62,0.68 5.43,1c1.71,0.26 3.45,0.38 5.18,0.34c0,0 -1.84,-0.56 -1.84,-0.56l0,0c-1.53,0.03 -0.11,-0.02 0.38,0.13c0.62,0.18 -2.82,-0.34 -1.91,-0.18c-1.84,-0.31 -3.68,-0.64 -5.52,-0.99c-0.73,-0.13 -1.45,-0.27 -2.18,-0.42c-0.58,-0.11 -1.15,-0.27 -1.74,-0.36c-0.98,-0.14 -1.97,-0.22 -2.95,-0.33c0,0 1.86,0.59 1.86,0.59z" fill="#003366" id="path15360" stroke="#003266" stroke-width="0.26"/>
   <path d="m67.63,54.05c2.62,0.46 5.24,0.97 7.87,1.4c0.81,0.1 1.61,0.29 2.42,0.35c2.08,0.16 1.42,0.21 2.26,0.14c0.04,-0.01 0.08,-0.01 0.12,-0.02c0,0 -1.91,-0.55 -1.91,-0.55l0,0c-0.03,0 -0.07,0 -0.11,0c-0.71,-0.03 -0.2,-0.01 1.58,0.12c0.11,0.01 -0.22,-0.02 -0.33,-0.03c-0.73,-0.07 -1.45,-0.18 -2.17,-0.29c-2.62,-0.41 -5.23,-0.87 -7.83,-1.41c0,0 -1.9,0.29 -1.9,0.29z" fill="#003366" id="path15364" stroke="#003266" stroke-width="0.26"/>
   <path d="m62.14,66.02c0.22,0.97 0.32,1.97 0.33,2.97c-0.02,0.74 -0.46,1.37 -0.81,1.99c-0.05,0.1 -0.09,0.2 -0.13,0.29c0,0 1.94,0.25 1.94,0.25l0,0c0.05,-0.09 0.09,-0.18 0.13,-0.27c0.37,-0.67 0.81,-1.36 0.83,-2.15c-0.04,-1.01 -0.16,-2.03 -0.33,-3.03c0,0 -1.96,-0.05 -1.96,-0.05z" fill="#003366" id="path15366" stroke="#003266" stroke-width="0.26"/>
   <path d="m53.66,73.43c3.63,0.65 7.19,1.58 10.75,2.55c0.38,0.07 0.76,0.16 1.14,0.22c0.42,0.05 0.84,0.08 1.27,0.11c1.07,0.07 2.14,0.14 3.21,0.19c1.15,0.07 2.31,0.08 3.46,0.1c0.42,0.02 0.85,-0.02 1.27,0c0.12,0 0.46,0.04 0.35,0.03c-0.6,-0.04 -1.19,-0.1 -1.78,-0.12c-0.07,0 -0.15,0 -0.19,0.04c-0.15,0.13 -0.26,0.31 -0.38,0.46c-0.66,0.73 -1.28,1.57 -2.24,1.92c-0.72,0.27 -1.41,0.29 -2.17,0.38c-1.61,0.09 -3.23,0.11 -4.84,-0.03c-0.17,-0.02 0.66,0.04 0.5,0.01c-0.34,-0.07 -0.69,-0.08 -1.04,-0.12c-0.51,-0.07 -0.81,-0.08 -1.29,-0.22c-0.31,-0.09 -1.16,-0.46 -1.32,-0.52c-0.96,-0.42 -1.16,-0.51 -2.11,-0.92c-0.56,-0.3 -1.22,-0.46 -1.75,-0.85c-0.3,-0.22 -0.52,-0.52 -0.73,-0.83c-0.31,-0.53 -0.45,-1.13 -0.63,-1.71c-0.14,-0.32 -0.29,-0.63 -0.4,-0.96c0,0 -1.98,-0.02 -1.98,-0.02l0,0c0.11,0.33 0.25,0.65 0.42,0.96c0.19,0.6 0.32,1.23 0.63,1.79c0.22,0.33 0.45,0.69 0.76,0.95c0.52,0.44 1.24,0.58 1.83,0.88c0.64,0.28 1.45,0.63 2.08,0.92c0.43,0.19 0.84,0.43 1.29,0.58c0.54,0.19 0.75,0.18 1.35,0.25c2.99,0.32 6.01,0.6 9.01,0.34c0.88,-0.12 1.45,-0.13 2.25,-0.46c0.96,-0.41 1.59,-1.29 2.28,-2.02c0.14,-0.17 0.3,-0.31 0.41,-0.49c0.11,-0.18 0.41,-0.49 0.23,-0.58c-0.78,-0.33 -2.63,-0.2 -3.63,-0.22c-0.82,0 -1.11,0 -1.99,-0.03c-0.47,-0.01 -0.94,-0.05 -1.4,-0.05c-0.13,0 0.49,0.05 0.36,0.04c-0.42,-0.02 -0.83,-0.04 -1.25,-0.08c-0.39,-0.05 -0.77,-0.13 -1.15,-0.19c-3.54,-0.9 -7.06,-1.86 -10.65,-2.57c0,0 -1.93,0.27 -1.93,0.27z" fill="#003366" id="path15372" stroke="#003266" stroke-width="0.26"/>
   <path d="m49.38,50.63c-0.41,0.25 -0.89,0.4 -1.26,0.7c-0.36,0.28 -0.6,0.65 -0.84,1.03c-0.07,0.14 -0.21,0.4 -0.24,0.57c-0.08,0.46 0.09,0.88 0.29,1.28c0.28,0.55 0.75,0.88 1.26,1.18c0.66,0.33 1.28,0.74 1.97,0.98c0.86,0.17 2.51,0.52 3.41,-0.02c0.09,-0.05 0.15,-0.12 0.23,-0.18c0.56,-0.51 0.55,-0.97 0.56,-1.68c0,-0.77 -0.23,-1.47 -0.66,-2.09c-0.31,-0.52 -0.81,-0.79 -1.34,-1.01c-0.12,-0.04 -0.24,-0.08 -0.36,-0.11c-0.28,-0.06 -0.59,-0.1 -0.88,-0.12c-0.95,-0.06 -1.96,-0.23 -2.93,-0.08c-0.09,0.09 -0.2,0.16 -0.28,0.26c-0.37,0.5 -0.41,1.18 -0.41,1.77c0.01,0.52 0.17,1.02 0.4,1.48c0.27,0.51 0.57,0.65 1.13,0.78c0.86,0.11 1.34,0.18 2.48,0.1c0.11,-0.01 0.18,-0.14 0.24,-0.24c0.28,-0.37 0.32,-0.83 0.36,-1.27c0,-0.51 -0.1,-1.01 -0.23,-1.5c-0.05,-0.17 -0.17,-0.65 -0.33,-0.79c-0.12,-0.1 -0.29,-0.12 -0.43,-0.18c-0.83,0.06 -1.68,0.01 -2.49,0.19c-0.25,0.05 -0.41,0.31 -0.59,0.48c-0.46,0.41 -0.91,0.89 -0.95,1.54c-0.01,0.17 0.04,0.33 0.06,0.5c0.08,0.16 0.14,0.33 0.24,0.47c0.26,0.37 0.9,0.88 1.38,0.92c0.76,0.06 1.53,0.09 2.29,0.13c0.12,-0.04 0.26,-0.06 0.37,-0.13c0.43,-0.26 0.67,-0.86 0.73,-1.34c0.02,-0.12 0.02,-0.25 0.03,-0.37c0.02,-0.37 -0.02,-0.74 -0.12,-1.1c-0.02,-0.1 -0.04,-0.2 -0.1,-0.29c-0.05,-0.08 -0.11,-0.18 -0.2,-0.18c-0.75,0.01 -1.48,0.14 -2.22,0.21c-0.28,0.47 -0.88,1.44 -0.65,2.01c0.05,0.13 0.15,0.22 0.22,0.33c1.12,0.85 1.78,0.84 3.38,0.87c0.1,0 0.16,-0.09 0.24,-0.14c0.38,-0.5 0.65,-1.1 0.48,-1.74c-0.03,-0.14 -0.09,-0.27 -0.14,-0.4c-0.07,-0.16 -0.22,-0.55 -0.34,-0.69c-0.53,-0.59 -2.42,-0.18 -2.45,-0.18c-0.13,0.01 -0.32,0.54 -0.34,0.61c-0.21,0.77 0.04,1.22 0.63,1.69c0.76,0.52 1.32,0.31 2.48,0.23c0.14,-0.01 0.24,-0.51 0.26,-0.61c0.01,-0.2 0.04,-0.81 -0.04,-0.97c-0.05,-0.09 -0.13,-0.16 -0.2,-0.23c-0.74,-0.01 -1.48,-0.12 -2.22,-0.02c-0.15,0.02 -0.21,0.22 -0.3,0.34c-0.28,0.39 -0.48,0.89 -0.51,1.37c-0.01,0.14 0.02,0.29 0.03,0.44c0.07,0.28 0.17,0.58 0.41,0.77c0.15,0.12 0.32,0.17 0.51,0.18c0.72,0.04 1.45,0.05 2.17,0.08c0.07,-0.04 0.14,-0.07 0.2,-0.12c0.31,-0.24 0.26,-0.72 0.21,-1.06c-0.19,-0.43 -0.38,-0.94 -0.79,-1.22c-0.06,-0.05 -0.14,-0.08 -0.22,-0.12c-1.49,-0.11 -2.56,-0.68 -2.32,0.84c0.34,0.94 1.3,0.61 2.36,0.57c0.08,-0.01 0.15,-0.47 0.15,-0.48c0.06,-0.54 0.08,-1.07 -0.24,-1.52c-0.68,0.04 -1.36,0.09 -2.04,0.13c0,0 1.96,0.28 1.96,0.28l0,0c-0.63,-0.04 -1.26,-0.08 -1.89,-0.12c0.03,-0.03 0.04,-0.1 0.09,-0.1c0.05,0 0.08,0.06 0.1,0.1c0.16,0.31 0.08,0.71 0.06,1.04c-0.02,0.05 -0.02,0.1 -0.05,0.15c-0.01,0.01 -0.08,0 -0.06,0c0.61,0.07 1.22,0.12 1.83,0.18c-0.08,-0.01 -0.14,0 -0.21,-0.06c-0.04,-0.03 -0.05,-0.07 -0.08,-0.11c-0.03,-0.13 -0.07,-0.29 -0.01,-0.42c0.03,-0.07 0.09,-0.05 0.15,-0.06c-0.58,-0.05 -1.17,-0.1 -1.75,-0.16c0.17,0.02 0.29,0.01 0.44,0.13c0.22,0.17 0.39,0.65 0.54,0.89c0.09,0.39 0.11,0.62 -0.33,0.7c0.56,0.05 1.12,0.08 1.67,0.14c0.09,0.01 -0.18,0.01 -0.27,0.01c-0.4,0 -0.5,-0.2 -0.64,-0.55c-0.02,-0.12 -0.05,-0.24 -0.04,-0.36c0.01,-0.28 0.12,-0.59 0.25,-0.83c0.07,-0.13 0.14,-0.25 0.24,-0.36c0.08,-0.09 0.41,-0.19 0.29,-0.23c-0.53,-0.17 -1.1,-0.15 -1.65,-0.23c0.06,-0.02 0.13,-0.08 0.18,-0.05c0.06,0.04 0.06,0.75 0.05,0.86c-0.03,0.09 -0.03,0.19 -0.11,0.26c-0.03,0.03 -0.14,0.05 -0.1,0.05c0.59,0.07 1.18,0.07 1.77,0.14c0.13,0.01 -0.57,0.13 -0.37,-0.04c-0.5,-0.34 -0.86,-0.64 -0.65,-1.3c0.05,-0.08 0.07,-0.17 0.13,-0.24c0.05,-0.06 0.26,-0.13 0.18,-0.15c-0.55,-0.12 -1.12,-0.1 -1.68,-0.2c-0.08,-0.01 0.18,-0.07 0.26,-0.03c0.13,0.07 0.31,0.54 0.35,0.63c0.04,0.11 0.1,0.22 0.14,0.34c0.12,0.4 0.02,0.85 -0.25,1.17c-0.06,0.07 -0.13,0.11 -0.2,0.17c-0.7,0.08 -0.74,0.07 1.47,0.19c0.1,0 -0.18,-0.06 -0.26,-0.1c-0.33,-0.13 -0.64,-0.29 -0.95,-0.45c-0.07,-0.05 -0.16,-0.09 -0.21,-0.16c-0.1,-0.14 -0.05,-0.41 -0.01,-0.55c0.11,-0.43 0.33,-0.82 0.61,-1.16c-0.55,-0.1 -1.12,-0.13 -1.65,-0.28c-0.08,-0.02 0.12,-0.15 0.19,-0.13c0.08,0.04 0.08,0.16 0.11,0.25c0.1,0.33 0.13,0.67 0.12,1.01c-0.04,0.5 -0.15,1.15 -0.7,1.35c-0.11,0.04 -0.24,0.05 -0.35,0.07c0.51,0.05 1.01,0.1 1.52,0.14c0.11,0.01 -0.21,-0.01 -0.32,-0.03c-0.39,-0.1 -0.79,-0.34 -1.06,-0.64c-0.1,-0.11 -0.16,-0.24 -0.24,-0.36c-0.02,-0.13 -0.07,-0.26 -0.07,-0.39c0.02,-0.55 0.49,-1.02 0.89,-1.35c0.19,-0.15 0.76,-0.24 0.59,-0.41c-0.31,-0.33 -0.87,-0.22 -1.31,-0.34c0.13,-0.01 0.27,-0.09 0.4,-0.05c0.19,0.06 0.32,0.57 0.35,0.68c0.13,0.46 0.21,0.93 0.23,1.4c-0.04,0.35 -0.05,0.78 -0.34,1.03c-0.06,0.05 -0.29,0.09 -0.21,0.1c0.64,0.11 2.36,0.18 1.35,0.14c-0.27,-0.03 -0.64,-0.05 -0.87,-0.23c-0.06,-0.05 -0.18,-0.23 -0.22,-0.29c-0.23,-0.41 -0.41,-0.86 -0.42,-1.33c-0.01,-0.47 -0.01,-1.17 0.38,-1.5c0.06,-0.06 0.16,-0.07 0.24,-0.11c0.72,-0.05 1.83,0.1 -0.88,-0.13c-0.14,-0.02 0.29,0.01 0.44,0.02c0.14,0.01 0.28,0.02 0.42,0.04c0.12,0.02 0.24,0.05 0.35,0.07c0.34,0.12 0.76,0.28 1.03,0.5c0.12,0.1 0.2,0.23 0.29,0.35c0.46,0.53 0.68,1.19 0.68,1.9c-0.02,0.63 0,1 -0.54,1.4c-0.24,0.13 -0.48,0.22 -0.76,0.24c-0.1,0.01 -0.4,0 -0.3,0.01c0.43,0.04 2.39,0.2 1.3,0.09c-0.11,-0.03 -0.22,-0.04 -0.33,-0.08c-0.59,-0.18 -1.07,-0.6 -1.63,-0.83c-0.49,-0.26 -0.98,-0.52 -1.26,-1.02c-0.33,-0.61 -0.44,-0.91 -0.08,-1.54c0.18,-0.26 0.25,-0.4 0.48,-0.62c0.45,-0.44 1.05,-0.67 1.6,-0.95c0,0 -1.91,-0.44 -1.91,-0.44z" fill="#003366" id="path15374" stroke="#003266" stroke-width="0.26"/>
   <path d="m70.79,56.48c-0.24,0.36 -0.51,0.69 -0.76,1.04c-0.05,0.06 -0.28,0.38 -0.32,0.48c-0.03,0.11 -0.03,0.22 -0.04,0.32c0.02,0.65 0.37,1.17 0.76,1.65c0.49,0.5 1.16,0.74 1.77,1.05c0.19,0.09 0.35,0.17 0.54,0.24c0.8,0.26 2.28,0.21 2.76,0.2c0.13,0 0.23,-0.1 0.34,-0.15c0.38,-0.26 0.92,-0.48 1.11,-0.94c0.03,-0.07 0.04,-0.14 0.06,-0.21c0.07,-0.67 -0.06,-1.06 -0.37,-1.65c-0.29,-0.39 -0.59,-0.8 -0.98,-1.1c-0.13,-0.1 -0.27,-0.18 -0.42,-0.26c-0.3,-0.15 -0.62,-0.32 -0.95,-0.35c-1.63,-0.16 -1.84,-0.42 -2.91,0.07c-0.08,0.09 -0.18,0.17 -0.23,0.28c-0.31,0.55 -0.28,1.46 -0.08,2.03c0.07,0.17 0.17,0.33 0.25,0.49c0.55,0.88 1.29,1.19 2.27,1.35c0.73,0.04 1.45,0.11 2.17,0.13c0.34,0.01 0.55,-0.42 0.63,-0.69c0.02,-0.09 0.03,-0.2 0.05,-0.3c0.09,-0.73 -0.09,-1.31 -0.46,-1.94c-0.16,-0.18 -0.22,-0.29 -0.42,-0.43c-0.89,-0.65 -2.16,-0.41 -3.14,-0.43c-0.09,0.07 -0.19,0.11 -0.26,0.19c-0.41,0.44 -0.36,1.05 -0.29,1.59c0.14,0.47 0.14,1 0.42,1.43c0.21,0.34 0.33,0.38 0.65,0.63c0.92,0.48 1.55,0.46 2.81,0.29c0.2,-0.02 0.24,-1.05 0.25,-1.2c-0.02,-0.16 -0.03,-0.33 -0.06,-0.5c-0.12,-0.57 -0.43,-1.3 -0.84,-1.73c-0.69,-0.05 -1.39,-0.18 -2.08,-0.15c-0.1,0.01 -0.1,0.16 -0.14,0.25c-0.16,0.42 -0.12,0.86 -0.05,1.29c0.05,0.16 0.11,0.42 0.21,0.56c0.5,0.65 2.02,0.38 2.38,0.4c0.08,0 0.16,-0.06 0.22,-0.12c0.08,-0.06 0.13,-0.15 0.19,-0.23c0.33,-0.52 0.27,-1.16 0.25,-1.75c-0.06,-0.76 -0.33,-1.04 -1,-1.34c-0.27,-0.07 -0.52,-0.19 -0.77,-0.29c-0.08,-0.04 -0.15,-0.09 -0.24,-0.09c-0.72,-0.08 -1.45,-0.17 -2.18,-0.17c-0.1,0 -0.17,0.12 -0.26,0.17c-0.51,0.32 -0.57,0.88 -0.64,1.42c-0.02,0.39 -0.06,0.8 0.06,1.18c0.07,0.24 0.14,0.33 0.26,0.55c0.06,0.07 0.11,0.16 0.19,0.22c0.86,0.82 2.02,0.65 3.15,0.74c0.05,-0.07 0.12,-0.12 0.16,-0.19c0.21,-0.34 0.14,-0.9 0.11,-1.28c-0.08,-1.57 -0.58,-1.07 -2.44,-1.14c-0.51,0.4 -0.78,0.74 -0.98,1.35c-0.09,0.69 0.37,1.01 0.93,1.25c0.84,0.28 0.77,0.27 2.36,0.21c0.09,-0.01 0.12,-0.14 0.16,-0.23c0.14,-0.33 0.11,-0.73 0.09,-1.08c-0.17,-0.57 -0.39,-1.21 -0.87,-1.6c-0.07,-0.06 -0.15,-0.1 -0.22,-0.15c-0.79,-0.33 -1.72,-0.2 -2.54,-0.21c-0.18,0 -0.36,0.18 -0.47,0.3c-0.32,0.59 0.05,1.24 0.32,1.78c0.3,0.63 0.78,0.94 1.37,1.23c0.77,0.34 1.76,0.58 2.52,0.18c0.06,-0.03 0.12,-0.08 0.18,-0.12c0,0 -1.93,-0.44 -1.93,-0.44l0,0c-0.06,0.02 -0.11,0.04 -0.16,0.05c-0.06,0.01 -0.26,0 -0.19,0c1.96,0.21 2.28,0.31 1.54,0.11c-0.55,-0.22 -1.09,-0.48 -1.38,-1.03c-0.16,-0.31 -0.64,-1.05 -0.32,-1.39c0.11,-0.06 0.11,-0.07 0.25,-0.1c0.06,-0.02 0.23,-0.03 0.17,-0.03c-0.57,-0.07 -1.16,-0.09 -1.73,-0.14c-0.07,-0.01 0.13,-0.01 0.2,-0.01c0.07,0.01 0.14,0.02 0.21,0.03c0.18,0.07 0.29,0.09 0.44,0.23c0.34,0.31 0.5,0.8 0.66,1.21c0.02,0.27 0.04,0.38 -0.02,0.65c-0.01,0.06 -0.03,0.13 -0.07,0.17c-0.02,0.03 -0.14,0.03 -0.11,0.03c2.32,0.26 2.24,0.25 1.5,0.11c-0.29,-0.1 -0.87,-0.24 -0.94,-0.6c-0.01,-0.07 0.01,-0.13 0.01,-0.2c0.16,-0.46 0.46,-0.89 0.93,-1.06c-0.6,-0.05 -1.2,-0.09 -1.79,-0.16c-0.05,0 0.14,-0.09 0.23,0.01c0.16,0.17 0.1,0.49 0.13,0.69c0.01,0.17 0.09,0.89 -0.09,0.98c-0.03,0.01 -0.07,0 -0.11,0c3.42,0.3 1.81,0.28 1.22,0.02c-0.09,-0.04 -0.17,-0.1 -0.26,-0.14c-0.08,-0.05 -0.18,-0.08 -0.26,-0.13c-0.07,-0.05 -0.12,-0.12 -0.18,-0.17c-0.11,-0.17 -0.2,-0.26 -0.27,-0.45c-0.12,-0.34 -0.08,-0.72 -0.05,-1.07c0.06,-0.53 0.07,-0.87 0.58,-1.12c0.75,-0.17 0.51,-0.09 -1.42,-0.22c-0.08,0 0.15,0.04 0.23,0.07c0.27,0.1 0.49,0.28 0.78,0.32c0.29,0.08 0.71,0.2 0.88,0.49c0.07,0.12 0.09,0.36 0.11,0.49c0.02,0.51 0.1,1.08 -0.23,1.51c-0.05,0.03 -0.1,0.08 -0.16,0.09c-0.06,0.02 -0.26,0.01 -0.19,0.02c0.56,0.07 1.12,0.12 1.68,0.18c0.07,0.01 -0.15,0.01 -0.21,-0.03c-0.1,-0.07 -0.18,-0.36 -0.22,-0.45c-0.05,-0.3 -0.1,-0.57 -0.02,-0.87c0.01,-0.06 0.03,-0.13 0.07,-0.18c0.02,-0.03 0.12,-0.03 0.09,-0.04c-0.6,-0.09 -1.2,-0.14 -1.8,-0.21c0.06,0.02 0.12,0.02 0.16,0.06c0.11,0.09 0.32,0.47 0.36,0.56c0.21,0.42 0.39,0.85 0.4,1.32c-0.01,0.2 -0.01,0.52 -0.09,0.73c-0.03,0.05 -0.18,0.11 -0.12,0.12c0.56,0.11 1.13,0.11 1.7,0.17c0.1,0.01 -0.21,0 -0.31,-0.02c-0.12,-0.03 -0.23,-0.09 -0.35,-0.14c-0.31,-0.17 -0.42,-0.2 -0.64,-0.48c-0.3,-0.38 -0.27,-0.89 -0.41,-1.33c-0.05,-0.4 -0.15,-0.96 0.25,-1.24c0.07,-0.05 0.15,-0.07 0.23,-0.1c-3.33,-0.38 -1.32,-0.26 -0.71,0.06c0.19,0.1 0.26,0.2 0.41,0.34c0.38,0.54 0.56,1.05 0.47,1.72c-0.04,0.19 -0.07,0.41 -0.26,0.53c-0.42,0.25 -2.75,-0.29 1.31,0.19c-0.56,-0.04 -1.15,-0.15 -1.64,-0.44c-0.31,-0.19 -0.41,-0.35 -0.63,-0.63c-0.08,-0.14 -0.19,-0.27 -0.25,-0.42c-0.18,-0.45 -0.25,-1.31 0.07,-1.73c0.05,-0.07 0.14,-0.1 0.21,-0.16c0.09,-0.03 0.19,-0.07 0.29,-0.09c0.49,-0.09 2.15,0.06 -1.23,-0.16c-0.12,-0.01 0.24,0.03 0.35,0.05c0.11,0.03 0.21,0.06 0.3,0.09c0.1,0.04 0.19,0.08 0.28,0.12c0.13,0.08 0.28,0.14 0.42,0.23c0.4,0.23 0.68,0.62 0.98,0.97c0.27,0.48 0.44,0.84 0.36,1.41c-0.17,0.46 -0.7,0.68 -1.1,0.89c-0.85,0.19 -0.37,0.05 1.28,0.21c0.08,0 -0.18,0 -0.26,-0.01c-0.23,-0.02 -0.3,-0.03 -0.52,-0.11c-0.09,-0.03 -0.19,-0.07 -0.29,-0.11c-0.1,-0.06 -0.5,-0.27 -0.6,-0.32c-0.4,-0.19 -0.83,-0.32 -1.17,-0.62c-0.36,-0.4 -0.69,-0.85 -0.75,-1.4c0.01,-0.07 0.01,-0.14 0.04,-0.21c0.03,-0.1 0.24,-0.39 0.29,-0.45c0.25,-0.35 0.51,-0.69 0.77,-1.02c0,0 -1.94,-0.32 -1.94,-0.32z" fill="#003366" id="path15376" stroke="#003266" stroke-width="0.26"/>
   <path d="m48.95,51.7c-0.49,0.6 -0.74,1.32 -0.88,2.07c0,0 1.95,0.17 1.95,0.17l0,0c0.12,-0.71 0.38,-1.38 0.86,-1.93c0,0 -1.93,-0.31 -1.93,-0.31z" fill="#003366" id="path16068" stroke="#003266" stroke-width="0.26"/>
   <path d="m71.42,57.41c-0.47,0.49 -0.82,0.99 -1,1.65c0,0 1.96,0.2 1.96,0.2l0,0c0.16,-0.58 0.51,-1.08 0.97,-1.47c0,0 -1.93,-0.38 -1.93,-0.38z" fill="#003366" id="path16070" stroke="#003266" stroke-width="0.26"/>
   <path d="m119.15,78.1c-0.05,-0.46 -0.04,-0.91 0,-1.37c0.04,-0.16 0.07,-0.32 0.08,-0.49c0,-0.19 0.04,-0.38 0.06,-0.57c0.01,-0.09 0,-0.19 0.03,-0.27c0,-0.02 0.01,-0.03 0.02,-0.04c0.01,-0.03 0.02,-0.06 0.03,-0.09c0.04,-0.14 0.09,-0.28 0.11,-0.42c0,0 -3.95,-0.35 -3.95,-0.35l0,0c-0.02,0.12 -0.07,0.24 -0.1,0.35c-0.06,0.17 -0.1,0.35 -0.09,0.54c-0.01,0.19 -0.05,0.39 -0.07,0.58c0,0.18 -0.05,0.35 -0.05,0.53c0.04,0.45 0.05,0.91 0,1.37c0,0 3.93,0.23 3.93,0.23z" fill="#003366" id="path16143" stroke="#003266" stroke-width="0.26"/>
   <circle cx="130.78" cy="82.89" fill="#003366" id="path16145" r="0.01" stroke="#003266" stroke-width="0.26"/>
   <circle cx="115.59" cy="76.62" fill="#003366" id="path16147" r="0.01" stroke="#003266" stroke-width="0.26"/>
   <path d="m49.58,51.21c-0.18,0.05 -0.09,0.02 -0.3,0.11c-0.07,0.03 -0.15,0.06 -0.21,0.09c-0.09,0.05 -0.17,0.11 -0.26,0.17c-0.41,0.26 -0.09,0.04 -0.48,0.31c-0.23,0.17 -0.17,0.12 -0.38,0.29c-0.06,0.05 -0.17,0.13 -0.23,0.2c-0.04,0.04 -0.08,0.11 -0.11,0.15c-0.05,0.08 -0.03,0.04 -0.07,0.13c0,0 1.96,0.25 1.96,0.25l0,0c0.03,-0.05 0.01,-0.02 0.05,-0.09c0.16,-0.22 0.4,-0.38 0.61,-0.55c0.15,-0.1 0.31,-0.21 0.47,-0.29c0.26,-0.13 0.54,-0.22 0.84,-0.22c0,0 -1.89,-0.55 -1.89,-0.55z" fill="#ffffff" id="path22363" stroke="#003266" stroke-width="0.26"/>
   <path d="m70.84,56.9c-0.21,0.3 -0.45,0.57 -0.71,0.82c-0.11,0.1 -0.21,0.18 -0.25,0.32c-0.03,0.09 -0.02,0.16 -0.03,0.25c0,0 1.95,0.13 1.95,0.13l0,0c0,-0.05 0,-0.08 0.02,-0.13c0.04,-0.09 0.13,-0.15 0.19,-0.23c0.06,-0.06 0.21,-0.22 0.26,-0.28c0.17,-0.19 0.31,-0.39 0.5,-0.55c0,0 -1.93,-0.33 -1.93,-0.33z" fill="#ffffff" id="path22369" stroke="#003266" stroke-width="0.26"/>
  </g>
 </g>
</svg>