<?xml version="1.0" encoding="UTF-8" standalone="no"?>
<svg
   xmlns:dc="http://purl.org/dc/elements/1.1/"
   xmlns:cc="http://creativecommons.org/ns#"
   xmlns:rdf="http://www.w3.org/1999/02/22-rdf-syntax-ns#"
   xmlns:svg="http://www.w3.org/2000/svg"
   xmlns="http://www.w3.org/2000/svg"
   xmlns:sodipodi="http://sodipodi.sourceforge.net/DTD/sodipodi-0.dtd"
   xmlns:inkscape="http://www.inkscape.org/namespaces/inkscape"
   version="1.1"
   id="svg376"
   width="130"
   height="130"
   viewBox="0 0 333.50687 262.83707"
   sodipodi:docname="missy.svg"
   inkscape:version="1.0beta2 (2b71d25, 2019-12-03)">
  <metadata
     id="metadata382">
    <rdf:RDF>
      <cc:Work
         rdf:about="">
        <dc:format>image/svg+xml</dc:format>
        <dc:type
           rdf:resource="http://purl.org/dc/dcmitype/StillImage" />
      </cc:Work>
    </rdf:RDF>
  </metadata>
  <defs
     id="defs380" />
  <sodipodi:namedview
     pagecolor="#ffffff"
     bordercolor="#666666"
     inkscape:document-rotation="0"
     borderopacity="1"
     objecttolerance="10"
     gridtolerance="10"
     guidetolerance="10"
     inkscape:pageopacity="0"
     inkscape:pageshadow="2"
     inkscape:window-width="1476"
     inkscape:window-height="938"
     id="namedview378"
     showgrid="false"
     inkscape:zoom="1"
     inkscape:cx="235.92382"
     inkscape:cy="86.674133"
     inkscape:window-x="0"
     inkscape:window-y="23"
     inkscape:window-maximized="0"
     inkscape:current-layer="g384" />
  <g
     inkscape:groupmode="layer"
     inkscape:label="Image"
     id="g384"
     transform="translate(-891.07163,-681.39759)">
    <path
       style="fill:#1e120c;stroke:none;stroke-width:0.23"
       d="m 1065.4116,743.35278 -29.9,2.3 c 0.2406,-5.60303 0.5787,-10.74238 -0.5635,-16.33 -1.6178,-7.91407 -5.5851,-14.54083 -10.3316,-20.93 -5.0167,-6.75257 -10.5379,-12.69807 -18.3149,-16.25893 -7.93428,-3.63308 -16.70188,-4.83621 -25.29997,-3.5834 -3.12616,0.4554 -8.5629,1.94442 -7.59,6.04233 l -3.91,1.38 c 0.44229,-1.85886 -0.47909,-3.68345 -2.5208,-2.18178 -1.76893,1.30111 -1.83517,3.65746 -3.29245,5.08208 -1.17806,1.15207 -2.96056,1.85679 -4.30675,2.8175 -2.00629,1.43175 -3.74946,3.22322 -5.75,4.6322 -0.58811,-1.72454 -1.47522,-5.12992 -2.80922,-6.34938 -1.51754,-1.38713 -4.34286,-0.77671 -4.91096,1.28961 -1.10906,4.03305 2.31081,6.98924 2.55001,10.57977 0.12742,1.91222 -2.80232,5.05655 -3.56983,6.9 -1.97363,-1.49822 -3.81846,-3.22253 -5.4809,-5.06 -1.173,-1.29651 -2.38901,-2.60751 -3.24921,-4.14 -0.5543,-0.98739 -0.74934,-2.36946 -1.86001,-2.91341 -1.28248,-0.62859 -2.62844,0.41929 -2.63994,1.76341 -0.0193,2.28965 1.17806,4.9588 2.28827,6.9 1.38621,2.42305 2.99,4.47143 4.96179,6.44 0.91264,0.91126 2.64684,1.89727 3.23633,3.03002 0.5911,1.13574 -0.60375,3.72991 -0.70633,5.01998 -6.38641,-0.13179 -11.78819,-4.80148 -16.33,-8.80578 -1.79837,-1.58539 -3.8663,-5.61085 -6.67,-5.0577 -5.91675,1.16725 -0.67275,9.18666 1.38897,11.33325 5.84821,6.08902 13.05848,8.07254 21.15103,8.05023 l 0.69,8.51 c -12.57939,-0.10419 -26.44701,-2.45226 -38.41,-6.28912 -2.59877,-0.83352 -5.06023,-2.06563 -7.36,-3.53073 -1.5479,-0.98601 -2.98402,-2.49596 -4.83,-2.83015 l 7.00051,6.28475 3.34949,7.97525 h -0.23 c -1.45429,-3.3695 -5.31323,-8.23124 -9.2,-8.74 1.12815,2.1068 3.66022,3.37686 4.9565,5.52 3.31959,5.48803 5.62074,12.10927 7.69281,18.17 4.21383,12.32547 5.18972,25.97758 6.47956,38.87 1.30502,13.04399 2.95504,26.0245 3.85043,39.1 0.75509,11.02344 0.45195,22.08437 0.93173,33.12 0.38778,8.92469 0.45195,17.9676 0.23552,26.91 -0.11684,4.8323 -0.72657,9.9038 -0.0941,14.72 0.45724,3.4822 -0.68126,10.235 2.26872,12.7489 1.31514,1.1201 3.15744,0.506 4.07261,-0.7981 1.49569,-2.1298 1.59597,-5.543 2.01756,-8.0408 1.99778,-11.8312 2.70572,-23.9154 3.22966,-35.88 0.92667,-21.1623 -0.61939,-42.05458 -3.37617,-63.02 -1.78135,-13.54654 -4.13586,-27.19221 -8.2317,-40.25 -2.28712,-7.29192 -5.70561,-13.92236 -8.62316,-20.93 h 0.23 c 5.41328,11.59407 13.61209,22.58646 21.12527,32.89 15.31501,21.0036 32.33915,41.52972 54.31473,55.87206 5.20191,3.39503 10.73732,6.46231 16.56,8.66019 3.1393,1.18496 6.9203,1.64956 9.8801,3.18412 1.4433,0.74819 2.4192,3.16664 3.2801,4.50363 1.428,2.21812 3.2232,4.17657 5.2398,5.87903 10.2419,8.64547 25.0355,11.16397 37.49,5.54921 6.072,-2.73746 10.9894,-7.6314 15.3433,-12.57824 2.1275,-2.41523 4.2619,-5.83027 6.9667,-7.59782 4.2343,-2.76713 9.1494,-4.89348 13.57,-7.39473 0.8441,-0.47817 1.9435,-0.49864 2.7117,-1.04811 9.8555,-7.03708 20.2515,-13.56379 29.9483,-20.96266 16.9832,-12.95866 33.1867,-27.74352 47.3685,-43.72668 7.8752,-8.87432 16.0057,-18.63184 21.4613,-29.21 1.1937,-2.31541 5.612,-8.08749 3.8272,-10.75733 -1.7641,-2.63534 -5.8489,3.00863 -6.8563,4.08388 -6.0099,6.4078 -11.3827,13.3837 -17.1373,20.01345 -17.5214,20.17836 -36.6459,40.04047 -57.4034,56.9158 -5.7408,4.66762 -11.4494,9.32972 -17.48,13.62727 -2.9831,2.12658 -6.2744,4.63864 -9.66,6.07844 -1.7687,0.7521 -3.9928,-0.72956 -5.52,-1.53824 -4.025,-2.13026 -7.5486,-5.25159 -12.19,-5.9823 -10.2511,-1.61345 -18.4315,6.34156 -28.29,6.77511 -3.0679,0.13478 -5.8289,-1.56032 -8.05,-3.49255 -1.3666,-1.1891 -2.6493,-2.96102 -4.6,-3.12846 -2.1539,-0.18515 -3.6793,1.5709 -5.059,2.96493 -3.3978,3.43321 -6.7404,6.67529 -10.581,9.63263 -1.2093,0.93127 -3.1765,3.22023 -4.83,3.03945 -2.9332,-0.32062 -6.0722,-2.21053 -8.74,-3.37456 -9.14733,-3.99073 -17.37811,-10.26352 -25.07,-16.51699 -20.20297,-16.42522 -35.58652,-36.87383 -51.56853,-57.18053 -4.48132,-5.69411 -8.77749,-11.52001 -13.21097,-17.25 -3.9238,-5.07127 -8.40765,-10.59817 -10.8905,-16.56 12.82756,7.48696 29.41838,11.48643 44.16,12.65 0.68839,3.99763 3.46725,7.89521 5.56416,11.27 3.26853,5.26033 7.75491,10.41486 13.06584,13.69397 14.99278,9.25704 37.35016,7.46764 52.21,-1.10929 5.3038,-3.0613 9.2925,-7.31883 12.995,-12.12468 1.1535,-1.4973 3.0326,-6.09155 4.9542,-6.40596 1.7117,-0.27991 3.5501,0.0639 5.2808,-0.0545 6.1905,-0.42412 12.4527,-0.35075 18.63,-0.93863 2.5231,-0.24012 5.0646,-0.21965 7.59,-0.46 1.0833,-0.10304 2.829,-0.58558 3.8617,-0.11891 1.2811,0.58006 2.1137,3.77453 2.7577,4.98801 1.7365,3.26945 4.2527,6.20701 6.9506,8.71953 10.8813,10.13518 26.4385,13.13944 40.71,10.2672 12.1371,-2.4426 21.9075,-10.23753 27.7587,-21.05673 1.9642,-3.6317 3.1579,-7.5946 4.4413,-11.5 0.4048,-1.22958 0.437,-3.80972 1.6445,-4.50363 3.4845,-2.00537 8.7469,-2.3391 12.6155,-3.41389 9.5059,-2.64155 18.998,-5.34221 28.52,-7.91775 3.427,-0.92644 6.9161,-1.63093 10.35,-2.53805 1.0925,-0.28842 3.1372,-0.7291 3.6386,-1.89658 0.5704,-1.32457 -2.3138,-1.13988 -2.9486,-1.11113 -3.1556,0.14306 -6.5297,1.03293 -9.66,1.54445 -13.8345,2.26044 -27.83,3.47323 -41.63,6.03658 l 0.23,-7.59 c 8.4249,2.49021 17.9032,-6.17987 21.4406,-12.88 1.2374,-2.34324 5.451,-10.09355 0.6394,-11.17915 -3.3925,-0.76544 -5.1704,4.16737 -6.6769,6.34915 -3.5052,5.0784 -8.9171,13.42211 -15.8631,13.57 -0.2668,-2.09691 -0.8142,-4.15518 -1.2995,-6.21 -0.1794,-0.75394 -0.7176,-1.75421 -0.46,-2.52908 0.4807,-1.44072 2.7094,-2.77288 3.7628,-3.8134 2.1666,-2.13578 4.1538,-4.70258 4.9519,-7.68752 0.4278,-1.5985 1.3133,-9.15032 -2.3161,-7.64842 -1.7181,0.71139 -1.7687,3.81869 -2.3529,5.34842 -1.2742,3.32327 -3.6501,6.96118 -6.4262,9.2 -0.8395,-4.715 -4.5218,-10.49076 -7.6843,-13.98101 -0.7958,-0.8763 -2.0125,-1.3386 -2.8957,-2.13946 -3.0291,-2.7439 -5.9547,-5.25757 -9.89,-6.56788 -3.8019,-1.26592 -7.268,-0.75555 -11.04,-1.28018 -2.3966,-0.33327 -4.6805,-1.42462 -7.13,-1.72569 -4.9289,-0.60536 -10.6007,0.6532 -14.95,2.99529 -14.651,7.89107 -27.3516,23.75003 -30.0288,40.40893 -0.9936,6.17734 0.094,12.24129 0.3588,18.4 m 39.33,-57.5 -0.23,0.23 0.23,-0.23 m -0.69,0.30659 c 0.1771,0 0.037,0.11454 -0.076,0.0768 l 0.076,-0.0768 m -0.46,0.15341 v 0.23 c -2.3552,1.5594 -6.0996,4.06479 -6.44,7.13 1.564,-1.5916 2.5576,-3.4017 4.6,-4.55998 5.1704,-2.93273 12.443,-2.91019 18.1033,-2.36854 2.4311,0.23253 4.4666,0.0577 6.9667,0.87285 2.8451,0.92736 5.0623,2.46606 7.36,4.34815 0.9706,0.79465 2.1965,1.45613 2.1183,2.85752 -0.4094,7.38093 -6.1456,13.33448 -10.4259,18.86 -1.1063,1.42761 -4.7794,5.57681 -6.8724,3.22 h -0.23 -0.23 c -1.0189,1.21072 -4.692,0.91908 -6.21,0.92 v -0.23 c 5.911,-4.23315 11.2838,-8.79681 12.5925,-16.33 0.4531,-2.60866 0.713,-5.97816 -0.2323,-8.51 -0.529,-1.41151 -2.0861,-2.72159 -3.6202,-1.96397 -2.714,1.34228 -1.8492,5.88432 -2.07,8.40397 -0.4508,5.14694 -2.9969,9.4024 -5.4694,13.8 -0.9591,1.70614 -2.3322,4.27754 -4.4206,4.6 v -1.15 c -0.6302,0.60467 -0.6831,1.00165 -0.46,1.84 l -15.41,3.45 v -0.23 c 6.7068,-3.82122 12.558,-12.21507 13.9702,-19.78 0.4991,-2.67881 1.3501,-6.41677 0,-8.97 -0.7015,-1.32204 -2.2747,-2.78484 -3.8364,-1.96466 -2.0516,1.07801 -0.9683,3.99165 -1.196,5.87466 -0.644,5.39028 -1.7457,10.66648 -3.9744,15.64 -1.3524,3.02128 -3.3833,6.44069 -5.888,8.6388 -4.5793,4.01879 -11.6748,5.8374 -17.2408,8.1512 l 3.68,-5.75 c 2.3207,4.01419 6.0306,0.84364 8.2409,-1.61 3.7743,-4.1929 6.3411,-9.2483 6.7022,-14.95 0.1173,-1.82413 0.3358,-4.2435 -1.0028,-5.70078 -1.6583,-1.80297 -4.7104,-0.84364 -5.1474,1.56078 -0.4462,2.44145 0.099,5.11474 -0.074,7.59 -0.2277,3.24967 -1.4973,6.69047 -2.7738,9.66 -0.5819,1.35562 -2.1367,4.93327 -4.0963,4.36954 -0.9499,-0.2737 -1.3593,-1.40139 -1.2489,-2.29954 0.4002,-3.27037 1.4628,-6.04946 1.2696,-9.43 -0.067,-1.13919 -0.1656,-2.38349 -0.6003,-3.45 -0.2944,-0.71806 -1.1017,-1.47775 -0.9476,-2.3 0.4094,-2.15418 3.6225,-5.04942 5.0922,-6.601 5.1405,-5.43099 11.8818,-12.07707 19.4258,-13.869 m -79.12,42.55 c -2.3117,-0.63112 -7.3724,-1.39702 -9.0507,-3.1073 -1.0591,-1.07916 -1.1162,-3.09235 -1.4674,-4.4827 -1.0125,-4.00821 -1.9449,-8.33681 -2.561,-12.42 -0.216,-1.43106 -0.67,-3.15905 -0.4391,-4.6 0.212,-1.32388 1.2924,-2.37912 0.087,-3.58938 -2.7786,-2.79013 -5.1582,2.78829 -4.9034,4.96938 0.5897,5.05218 2.1489,9.84032 4.1718,14.49 0.7852,1.80481 1.9899,3.45345 2.6624,5.29 -1.6433,-0.46299 -4.9811,-0.6118 -5.98,-2.07 -2.6183,0.60191 -4.0454,-1.55848 -5.1037,-3.68 -1.5775,-3.16296 -1.97777,-7.12931 -2.54288,-10.58 -0.28129,-1.71695 -0.75578,-3.78373 -0.4623,-5.52 0.3657,-2.16384 4.61088,-4.00936 1.64408,-6.28981 -3.76468,-2.89386 -7.9033,3.40538 -8.21587,6.51981 -0.72289,7.20061 3.46725,13.15899 7.32067,18.63 h -1.15 v -0.92 c -2.54081,1.59988 -6.97268,-0.18032 -8.74,-2.32139 -3.50566,-4.24718 -6.48807,-13.11575 -4.9933,-18.60861 0.71231,-2.61786 4.07491,-3.62664 4.58896,-5.98092 0.16836,-0.77073 -0.30889,-1.57389 -0.51566,-2.29908 l 0.69,-0.92 c -4.50133,-1.6376 -11.20491,1.96397 -15.64,2.99 0.0311,-3.42539 4.12689,-4.01396 6.9,-4.14897 6.73233,-0.32729 13.47478,0.16836 19.78,2.83429 7.1178,3.00955 14.8698,7.26754 18.6544,14.42468 1.0323,1.95178 0.1999,5.76196 0.6666,8.05 0.9572,4.69522 3.5169,8.78439 4.599,13.34 m -42.32,-34.5 -0.23,0.23 0.23,-0.23 m -0.46,0.23 c -1.31882,1.87243 -2.82808,3.26508 -3.5604,5.52 -2.59739,7.99779 2.79979,14.72276 7.0104,20.7 -1.54077,0 -3.33753,0.52279 -4.83,0.2001 -5.82176,-1.2581 -8.39707,-7.11114 -10.21522,-12.1601 -0.62031,-1.7227 -2.23813,-5.47101 -1.58539,-7.28502 0.39054,-1.08583 2.34485,-1.87795 3.29061,-2.39315 3.11742,-1.69855 6.40343,-3.75567 9.89,-4.58183 m 160.08,4.83 c 1.6169,2.22594 2.7623,4.84633 3.8617,7.36 0.3289,0.75325 1.1339,1.90578 0.874,2.75655 -0.3335,1.10009 -2.0746,2.20846 -2.8957,2.97298 -2.9831,2.77334 -9.4691,7.36368 -12.88,2.78047 v -0.23 c 3.519,-2.71308 6.7942,-5.66076 8.8964,-9.66 0.9821,-1.86645 1.0856,-4.22717 2.1436,-5.98 m -178.25,5.52 c 0.49243,6.23001 3.60755,13.14381 9.2,16.33 -1.03983,0.37191 -2.41247,-0.20263 -3.45,-0.49565 -3.64274,-1.02879 -6.66011,-3.27336 -9.23979,-5.96505 -0.79948,-0.83444 -2.806,-2.40396 -2.80393,-3.6593 10e-4,-0.83099 0.93564,-1.53801 1.46395,-2.07 1.45015,-1.46027 2.93273,-3.27106 4.82977,-4.14 m 60.26,8.51 c 3.3226,5.96781 6.6946,11.69596 7.59,18.63 -1.3682,-0.43309 -4.9546,-1.88393 -5.7444,-3.08062 -0.5318,-0.80546 -0.435,-2.19972 -0.5631,-3.12938 -0.3898,-2.83107 -0.6288,-5.67778 -1.0226,-8.51 -0.1646,-1.18473 -0.701,-2.77978 -0.2599,-3.91 m 124.66,0 1.61,7.13 c -2.5967,-0.22678 -6.992,-1.60034 -9.2,-2.99 l 7.59,-4.14 m -74.06,1.61 c 0.028,3.69656 0.4117,7.13828 -0.4347,10.81 -0.2461,1.07065 -0.6141,3.37272 -2.1045,3.33339 -1.8515,-0.049 -1.2374,-2.42742 -1.0741,-3.56339 0.4485,-3.17492 1.5755,-8.05782 3.6133,-10.58 m 56.12,0.46 0.46,1.38 -2.53,0.23 2.07,-1.61 m -177.79,1.38 c 3.65194,3.64412 8.07829,6.48416 13.34,6.9 v 0.23 c -5.244,1.47706 -11.24286,0.92414 -16.1,-1.84 l 2.76,-5.29 m 197.57,15.87 h -0.69 c 0,7.63347 -2.3736,15.40885 -6.1456,22.08 -3.4592,6.1203 -8.5583,11.73345 -14.7844,15.10893 -14.3037,7.75468 -35.5925,5.23756 -47.38,-6.16032 -6.0812,-5.87995 -8.5928,-14.40582 -9.9475,-22.51861 -0.2806,-1.68406 -1.6537,-6.20655 -0.6256,-7.67326 0.9177,-1.31031 4.2688,-1.9711 5.7431,-2.44007 2.8106,-0.8947 5.7224,-1.50374 8.51,-2.46629 2.8267,-0.97589 5.9777,-2.35612 8.97,-2.60038 v 0.23 c -8.6089,4.90521 -7.8683,18.60447 -1.8975,25.27953 6.7298,7.52215 18.6622,12.2682 28.5775,7.87221 3.657,-1.62081 6.5826,-4.55791 9.0597,-7.62174 2.9417,-3.6409 4.9519,-8.2271 5.5936,-12.87977 0.6417,-4.64324 -0.8234,-9.37227 -2.7646,-13.57023 -0.7199,-1.55618 -2.0654,-2.9371 -2.4587,-4.6 5.3705,0 9.9061,0.26473 15.18,1.58079 1.3294,0.33212 4.232,0.4991 5.0531,1.73558 1.2282,1.84805 0.087,6.50164 0.01,8.64363 m 43.7,194.35 c -13.5562,-5.3659 -27.8001,-9.3426 -41.86,-13.1445 -12.2544,-3.3143 -24.3501,-6.5343 -37.03,-7.7464 -17.1304,-1.6376 -34.3942,-1.0028 -51.52,0.1702 -12.5343,0.8602 -25.0502,1.8699 -37.49,3.7973 -14.5215,2.254 -28.80612,5.658 -43.24,8.3536 -12.60377,2.3529 -25.16085,5.1865 -37.49,8.7009 -4.92821,1.4053 -9.98177,2.645 -14.72,4.6345 -3.81846,1.6008 -7.61323,3.2246 -11.04,5.5913 -1.59781,1.1017 -3.2384,2.3092 -3.45,4.3631 1.41312,-0.7544 2.40005,-2.0746 3.91,-2.7853 6.51245,-3.0613 13.95111,-4.5034 20.93,-6.1042 14.39248,-3.3028 28.88823,-5.4832 43.47,-7.7326 12.00439,-1.8538 24.0199,-3.7881 36.11,-4.9588 39.3645,-3.8088 79.2994,-2.7669 118.45,2.691 11.4655,1.5985 22.6366,4.5655 34.04,6.4515 7.2542,1.1983 15.2444,1.1776 22.3054,3.2062 1.3501,0.3887 1.6744,1.8906 2.2494,3.0222 1.3018,2.5714 3.9192,8.8734 7.4152,8.5928 4.5977,-0.3703 2.3092,-7.2657 1.61,-9.9728 5.6925,0.736 12.2199,3.5926 17.94,2.53 -0.8165,-1.6583 -2.7186,-1.9619 -4.37,-2.3529 -3.2338,-0.7659 -6.4469,-1.656 -9.66,-2.5047 -1.2696,-0.3335 -4.0342,-0.5497 -4.669,-1.8423 -2.0079,-4.0986 -2.4932,-10.2005 -3.2453,-14.6901 -1.6077,-9.5864 -3.1073,-19.182 -4.8323,-28.75 -2.6864,-14.88928 -3.312,-29.86987 -4.0917,-44.91578 -1.3156,-25.45157 0.6923,-51.39695 6.1617,-76.29422 3.0222,-13.76826 6.1778,-28.47791 12.2866,-41.17 -1.6491,0.25438 -2.3138,1.65945 -3.0866,2.99 -1.5502,2.66777 -3.082,5.33991 -4.5563,8.05 -6.2031,11.40455 -12.2199,22.77598 -15.5595,35.42 -5.5039,20.83064 -7.1553,41.60907 -8.0868,63.02 -0.9223,21.20393 0.4968,42.58841 4.2895,63.48 1.8745,10.3224 6.486,19.7731 8.8297,29.9 m -240.81,-198.95 v 0.23 c -2.07161,1.15345 -3.50497,2.11646 -5.98,1.84 l 0.81972,-2.51459 5.16028,0.44459 m 53.13,1.15 c 5.7889,1.75904 12.4085,2.0608 18.4,2.82578 1.5813,0.20171 5.8595,0.49151 6.8269,1.89221 0.8492,1.22935 0.5331,4.39415 0.5331,5.86201 -4e-4,6.72428 -3.0224,13.55206 -6.986,18.86 -9.0668,12.14239 -22.0903,17.52853 -36.944,18.17897 -6.33604,0.27761 -12.46439,-0.1978 -18.4,-2.73976 -10.94662,-4.68786 -19.77356,-16.97699 -22.12577,-28.54921 -0.56971,-2.80232 -0.87423,-5.65041 -0.87423,-8.51 0,-0.86848 -0.27899,-2.35336 0.23644,-3.10546 0.44919,-0.65527 1.58976,-0.97198 2.29356,-1.26454 1.68199,1.80619 3.78557,0.41883 5.75,-0.26197 3.99556,-1.38483 8.6871,-2.18661 12.88,-2.72803 -3.76924,5.72309 -7.30572,13.44097 -5.63431,20.47 2.63557,11.08324 16.5393,17.96622 27.25431,15.30075 6.25738,-1.55664 11.5932,-6.07499 15.0549,-11.39075 3.2007,-4.91487 6.2705,-11.70769 4.9517,-17.71 -0.4911,-2.23468 -3.2849,-5.11014 -3.2166,-7.13 m 64.4,0.46 1.61,0.69 v 0.23 l -1.84,0.92 0.23,-1.84 m 30.13,0.0757 c 7.4244,-1.33492 10.3155,11.28265 2.07,12.72866 -8.188,1.43566 -9.2483,-11.4379 -2.07,-12.72866 m 19.55,1.60931 c 6.7045,-1.11964 9.0551,10.51514 2.3,11.82177 -7.7441,1.49776 -10.8836,-10.38864 -2.3,-11.82177 m -143.52,0.23989 c 2.95136,-0.37398 6.19229,3.6064 5.95493,6.35513 -0.2369,2.74643 -3.33063,5.3843 -5.95493,5.77093 -8.5882,1.26569 -6.38549,-11.31715 0,-12.12606 m 13.34,8.27172 c 5.03102,-0.81397 3.43252,6.30361 -0.46,6.95428 -2.19742,0.36754 -3.59398,-2.14958 -3.12363,-4.04087 0.39652,-1.59413 2.03021,-2.66225 3.58363,-2.91341 m 97.1359,0.99682 0.078,0.15318 -0.078,-0.15318 m -185.6859,4.44659 0.46,1.15 h -0.23 l -0.23,-1.15 m 0.69,1.38 -0.23,0.23 0.23,-0.23 m 214.36,1.71074 c 3.1004,-0.53429 4.7196,5.22054 1.38,5.82682 -3.864,0.70127 -5.2003,-5.16856 -1.38,-5.82682 m -133.86,2.27493 c 4.86266,-0.86181 6.06188,6.78569 1.38,7.69603 -5.64259,1.0971 -6.47243,-6.79305 -1.38,-7.69603 m -76.59,3.60433 -0.23,0.23 0.23,-0.23 m 0.23,0.46 -0.23,0.23 0.23,-0.23 m 0.23,0.46 -0.23,0.23 0.23,-0.23 m 0.23,0.46 0.46,1.15 h -0.23 l -0.23,-1.15 m 133.86,29.21 c 2.9256,-1.05294 5.0805,3.56638 6.2804,5.75 2.2563,4.10619 5.0174,8.97667 3.4373,13.8 -0.6883,2.10105 -2.0757,3.96934 -3.3446,5.75 -0.9474,1.32963 -4.977,5.03769 -3.2614,6.77925 2.0488,2.08035 6.057,-2.43915 7.2374,-3.7927 4.2536,-4.87646 5.2702,-10.98871 2.2758,-16.78655 -2.0053,-3.8824 -4.9038,-7.7533 -8.0649,-10.77987 -1.1491,-1.10009 -3.795,-3.29636 -4.56,-0.72013 m 39.33,59.57 c -1.1316,1.47407 -2.7439,2.04608 -4.37,2.81865 -3.6064,1.71465 -7.4405,2.91502 -11.27,4.01442 -12.6739,3.6386 -26.596,3.72738 -39.56,1.80872 -4.8808,-0.72266 -9.4833,-2.24664 -14.26,-3.35179 3.8548,-3.43206 8.7274,-5.61384 12.65,-9.03578 1.4021,-1.22291 3.6002,-4.10596 5.5198,-4.38196 1.5546,-0.22356 3.4003,3.01277 4.3737,3.98429 2.5164,2.51229 5.7051,3.89022 9.1965,4.30767 9.286,1.11067 17.1856,-6.12536 26.45,-5.67502 4.2596,0.207 7.498,3.93254 11.27,5.5108 m -12.88,12.88 c -12.5741,17.84984 -41.8025,19.34622 -54.74,0.92 6.2958,0.50117 12.5015,2.30391 18.86,2.73953 8.3617,0.57247 16.7955,0.38847 25.07,-0.99958 3.6869,-0.61847 7.1852,-1.82896 10.81,-2.65995 z"
       id="path388"
       inkscape:connector-curvature="0" />
  </g>
</svg>
