<?xml version="1.0" encoding="UTF-8" standalone="no"?>
<svg
   xmlns:dc="http://purl.org/dc/elements/1.1/"
   xmlns:cc="http://creativecommons.org/ns#"
   xmlns:rdf="http://www.w3.org/1999/02/22-rdf-syntax-ns#"
   xmlns:svg="http://www.w3.org/2000/svg"
   xmlns="http://www.w3.org/2000/svg"
   xmlns:sodipodi="http://sodipodi.sourceforge.net/DTD/sodipodi-0.dtd"
   xmlns:inkscape="http://www.inkscape.org/namespaces/inkscape"
   version="1.1"
   id="svg629"
   width="130"
   height="130"
   viewBox="0 0 298.80621 294.58001"
   sodipodi:docname="sam.svg"
   inkscape:version="1.0beta2 (2b71d25, 2019-12-03)">
  <metadata
     id="metadata635">
    <rdf:RDF>
      <cc:Work
         rdf:about="">
        <dc:format>image/svg+xml</dc:format>
        <dc:type
           rdf:resource="http://purl.org/dc/dcmitype/StillImage" />
      </cc:Work>
    </rdf:RDF>
  </metadata>
  <defs
     id="defs633" />
  <sodipodi:namedview
     pagecolor="#ffffff"
     bordercolor="#666666"
     inkscape:document-rotation="0"
     borderopacity="1"
     objecttolerance="10"
     gridtolerance="10"
     guidetolerance="10"
     inkscape:pageopacity="0"
     inkscape:pageshadow="2"
     inkscape:window-width="1642"
     inkscape:window-height="957"
     id="namedview631"
     showgrid="false"
     inkscape:zoom="1"
     inkscape:cx="159.1626"
     inkscape:cy="202.82155"
     inkscape:window-x="0"
     inkscape:window-y="23"
     inkscape:window-maximized="0"
     inkscape:current-layer="svg629" />
  <g
     inkscape:groupmode="layer"
     inkscape:label="Image"
     id="g637"
     transform="translate(-926.17655,-661.71935)">
    <path
       style="fill:#1f130d;stroke:none;stroke-width:0.26"
       d="m 1147.4366,661.71935 c -0.377,1.31534 0.9958,3.86126 0.3094,4.78686 -0.5772,0.77454 -2.7872,0.99788 -3.6894,1.16844 -3.2838,0.62062 -6.5702,1.15856 -9.88,1.6185 -13.5746,1.88656 -27.6536,3.01392 -41.34,3.3501 -9.789,0.24024 -19.5806,1.31222 -29.38,1.5522 -24.6421,0.60372 -49.4575,0.23478 -74.10005,-0.25974 -13.2717,-0.26624 -26.51636,0.25844 -39.78,0.26364 -7.49502,0.003 -16.09452,-1.14972 -23.4,0.52 1.25918,4.18496 9.7136,0.30498 12.29748,2.75678 1.57742,1.49708 2.2126,5.3742 3.04564,7.38322 2.15904,5.20754 5.16516,10.02508 7.09618,15.34 4.693,12.91836 7.98408,26.58032 10.69744,40.04 4.27804,21.22172 7.2462,42.5984 8.19312,64.22 1.25216,28.5961 -2.08026,57.87235 -6.6859,86.05999 -2.8067,17.17823 -5.82166,34.31483 -8.66476,51.48003 -0.29172,1.7602 -0.12298,5.5562 -1.17598,6.9342 -1.96742,2.574 -6.1711,3.0524 -8.2732,5.6238 -0.8827,1.079 -0.26624,1.651 0.88998,1.742 l -0.78,-0.52 c 2.91044,-2.613 6.88324,-3.6608 10.4,-5.148 13.77194,-5.824 29.16394,-6.0268 43.86564,-7.3918 27.81791,-2.5792 56.24971,-0.3874 84.05441,0.8294 17.3368,0.7592 34.6918,1.1414 52,2.327 6.1932,0.4238 12.5138,0.1846 18.6758,0.923 6.11,0.7332 12.3656,0.5226 18.5042,0.9438 11.4114,0.7826 22.7266,1.7888 34.06,3.4658 3.7232,0.5512 7.8676,0.8294 11.44,2.0592 1.0452,0.3614 1.6146,1.3858 2.6234,1.755 0.9984,0.364 1.5314,-0.1872 1.7966,-1.0634 1.8148,0.6136 2.8106,0.4836 3.12,-1.56 -5.4028,-0.442 -6.0918,-6.5312 -7.54,-10.92 -3.9078,-11.8378 -6.1334,-24.7702 -7.0434,-37.18 -2.2542,-30.76089 -3.328,-61.8379 0.3588,-92.56002 1.5444,-12.8856 3.6556,-25.73766 6.1126,-38.48 1.4846,-7.69756 3.861,-15.5779 4.472,-23.4 2.6546,1.0816 6.8406,0.46202 4.6566,-3.38 -1.4482,-2.5454 -4.6306,-4.50736 -6.7366,-6.51014 -5.8162,-5.53436 -11.9314,-10.76556 -17.68,-16.37376 -13.4342,-13.10608 -25.9558,-26.98332 -37.4114,-41.8561 -3.8974,-5.0622 -8.3668,-9.89404 -11.7286,-15.34 2.1268,-0.9932 5.6914,-2.23574 6.76,-4.42 -1.6302,0.51948 -5.9852,4.0924 -7.6622,2.93592 -1.1362,-0.78286 -1.3884,-2.55944 -1.9578,-3.71592 h -0.52 m 1.3,6.24 c 3.3384,6.26392 5.9748,12.82814 9.5836,18.98 13.1144,22.35064 31.291,45.36896 53.5964,59.02 v 0.26 l -16.9,-2.29606 -27.82,-1.88708 -20.8,-0.99372 -11.18,2.57686 c 1.6562,-2.42242 3.7232,-4.54194 5.3196,-7.02 6.6066,-10.25726 11.9756,-22.5836 14.2324,-34.58 0.8554,-4.55208 0.5928,-9.49104 -0.1664,-14.04 -0.2652,-1.58964 -1.7316,-4.57912 -3.731,-2.98246 -1.417,1.13204 -1.2844,3.43616 -1.365,5.06246 -0.1638,3.38832 -0.8242,6.78366 -1.2896,10.14 -0.9646,6.93446 -3.341,13.63908 -5.4522,20.28 -1.8668,5.87574 -3.2942,11.93166 -6.1906,17.42 -2.0826,3.94654 -4.9192,9.61662 -9.9372,9.62 0.8086,0.7579 1.5652,0.52052 2.5012,0.93574 0.923,0.40768 1.3702,1.24826 2.4388,1.48252 2.0046,0.43966 4.7034,-0.61854 6.76,-0.81406 3.783,-0.3601 7.9014,-0.2002 11.7,-0.0341 13.325,0.5837 26.6734,1.66218 40.04,0.74672 5.278,-0.36166 10.582,-0.4186 15.86,-0.78 4.0794,-0.2795 8.489,-0.77272 12.48,0.28314 -1.6588,6.06294 -4.9348,11.80296 -7.1708,17.68 -4.2328,11.12852 -7.9352,22.44762 -10.6002,34.06 -3.6296,15.81476 -5.1922,31.94438 -5.8994,48.1 -1.0894,24.90513 0.572,50.57002 7.7376,74.62002 2.9302,9.8332 8.6528,17.979 12.5528,27.3 -8.7906,-1.183 -17.5994,-3.6972 -26.26,-5.6108 -12.9766,-2.8652 -26.078,-5.1116 -39.26,-6.7938 -22.9268,-2.9276 -45.7652,-3.2968 -68.835,-3.7622 -35.7737,-0.7202 -72.5133,-0.7982 -107.70505,6.4584 -5.85312,1.209 -11.22446,3.393 -16.9,5.0284 0.69238,-5.1376 3.27158,-10.3974 4.85056,-15.34 2.25524,-7.059 3.84176,-14.3494 5.4392,-21.58 7.54416,-34.15675 13.07202,-69.01 9.68604,-104.00002 -3.01626,-31.1701 -10.96394,-62.12674 -20.8481,-91.78 -2.4596,-7.37854 -5.24472,-14.66296 -8.81478,-21.58 -2.4024,-4.65426 -6.16252,-9.8072 -6.95292,-15.08 2.6689,0.63544 5.5913,0.52338 8.32,0.85436 7.54026,0.9139 15.10886,2.04516 22.62,3.15666 59.07955,8.74458 121.37065,5.43296 178.36005,-13.11102 m -135.72,113.36 c -0.4701,0.24466 -0.8872,0.46124 -1.2717,0.83928 -2.8434,2.79396 1.1877,3.76298 2.1791,5.6953 1.0049,1.95832 1.2623,4.4148 2.1398,6.46542 4.5762,10.69588 11.2801,18.79254 20.6128,25.6711 2.3485,1.73082 4.5962,3.80068 7.28,5.0089 -3.9718,2.30958 -12.7143,4.90412 -13,10.4 1.8374,-1.25242 2.7679,-3.4697 4.94,-4.71302 17.947,-10.27416 40.066,-11.90826 60.06,-7.91024 8.0132,1.60238 16.354,4.00738 22.62,9.42812 1.5262,1.31976 3.0628,2.70868 4.68,3.91248 0.403,0.30108 1.352,1.11904 1.885,0.63128 0.7228,-0.66404 -1.2402,-1.95728 -1.625,-2.28202 -2.3036,-1.94818 -4.6046,-3.97566 -6.76,-6.0866 4.2588,-2.12082 6.9888,-6.01224 10.1504,-9.36 9.308,-9.85712 19.747,-24.05078 19.7496,-38.22 4.3966,-0.78364 4.7008,-5.56686 0,-5.98 0,-2.75366 -0.4446,-5.39838 -1.1674,-8.06 -4.6384,-17.09266 -24.609,-19.24156 -39.3926,-18.22314 -13.312,0.91676 -26.1352,5.34638 -30.16,19.52314 l -1.04,-0.26 0.26,4.16 h -0.26 l -2.34,-8.32 c -3.1307,-2.7443 -4.8636,-8.41542 -7.1331,-11.96 -3.5168,-5.49224 -9.0496,-9.07868 -15.2269,-10.91064 -17.2773,-5.12356 -33.0767,11.84118 -36.6291,27.29064 -0.8887,3.86516 -1.6913,9.40238 -0.5509,13.26 m 1.56,-0.52 c -6e-4,-4.55624 -0.3183,-8.7386 0.6929,-13.26 2.387,-10.67378 11.4881,-22.14342 22.1871,-25.33206 12.1355,-3.61634 23.0094,2.82126 29.172,13.11206 1.1778,1.9669 4.5162,6.214 4.3056,8.56882 -0.1092,1.21056 -2.1333,1.9448 -3.0576,2.41462 -3.1359,1.59406 -6.3838,3.01678 -9.62,4.39556 -14.2361,6.06398 -28.3494,8.88914 -43.68,10.101 m 131.3,-6.24 c -5.2182,-0.0143 -10.3922,-1.32158 -15.6,-1.54986 -17.6852,-0.77428 -35.6122,-1.09486 -53.04,-4.69014 4.4772,-15.46922 19.8536,-18.98 34.06,-18.98 13.507,0 29.3462,2.78096 33.501,17.94 0.65,2.37718 1.079,4.81624 1.079,7.28 m -74.1,-9.36 c 4.7268,13.99632 4.5266,28.85012 -0.988,42.64 -1.3539,3.38494 -2.8899,9.2326 -5.8199,11.56636 -2.0821,1.65828 -6.9737,1.45184 -9.5721,2.0085 -2.2901,0.49036 -4.562,1.23578 -6.76,2.03892 -1.0788,0.39416 -2.4594,1.20484 -3.64,0.98982 -3.5444,-0.64558 -6.9912,-4.4564 -9.62,-6.65964 -9.112,-7.63724 -17.043,-18.6121 -19.5,-30.48396 6.8034,1.26308 14.8153,-0.26 21.32,-2.34 -1.6347,8.80516 0.5868,19.09908 4.6165,27.04 2.3587,4.64802 6.3895,8.3707 11.7635,8.84 l -1.04,-1.04 c 4.5159,-3.69512 4.8838,-9.1013 4.701,-14.60446 -0.1911,-5.75614 0.1118,-11.31624 -1.8642,-16.85554 -1.1796,-3.30616 -3.2682,-5.98338 -4.6568,-9.1 7.7641,-3.52898 14.1453,-9.22636 21.06,-14.04 m 34.06,13.78 c -1.3754,2.57452 -3.9078,4.14284 -5.083,7.02 -3.2916,8.05636 -4.4434,18.61366 -2.769,27.3 0.6448,3.33476 3.4424,8.51396 7.332,8.98612 4.7216,0.5733 7.7168,-6.02394 9.0168,-9.50612 2.8652,-7.6739 5.1168,-17.85654 3.1408,-26 -0.572,-2.36314 -2.3192,-4.01414 -3.0576,-6.24 l 16.12,1.80076 15.34,-1.28076 c -0.039,14.066 -10.907,27.911 -20.0252,37.7 -2.288,2.45388 -4.3342,5.2026 -7.0148,7.2462 -0.78,0.5941 -1.8382,1.71366 -2.86,1.81298 -1.3858,0.13468 -3.653,-1.76176 -4.94,-2.33532 -3.7986,-1.69182 -7.904,-3.02458 -11.96,-3.9546 -3.263,-0.74828 -6.565,-1.17312 -9.88,-1.61902 -1.3806,-0.18564 -3.2526,-0.0135 -4.3706,-0.97292 -3.6764,-3.15276 -4.8932,-10.738 -5.5432,-15.25732 -1.6666,-11.55882 -3.4918,-22.34336 -2.5662,-34.06 2.9406,0.50648 5.8058,2.38264 8.58,3.48374 6.3284,2.51056 13.7098,5.3326 20.54,5.87626 m -58.76,6.24 -0.26,0.26 0.26,-0.26 m -3.9,4.24918 c 6.9217,-1.03454 8.2277,10.70368 1.82,11.466 -6.2247,0.74048 -8.5525,-10.45954 -1.82,-11.466 m 33.02,3.81082 c 0.7202,9.05216 4.0118,17.88956 7.8,26 -5.9176,-0.74776 -11.5154,-0.4862 -17.42,0.26 l 6.9316,-16.12 2.6884,-10.14 m 32.76,0.0793 c 5.382,-0.71994 4.6488,10.14078 0,10.7445 -2.1268,0.27638 -3.3774,-1.768 -3.8584,-3.5438 -0.8502,-3.13404 0.2886,-6.72308 3.8584,-7.2007 m -57.199,4.99824 c 3.1819,-0.25298 4.1179,5.53904 0.7787,5.81022 -3.7141,0.3016 -4.2141,-5.53696 -0.7787,-5.81022 m -7.2808,4.1665 c 3.7396,-0.2288 4.5336,5.7603 0.7795,6.06372 -3.53,0.28522 -4.2676,-5.85026 -0.7795,-6.06372 m 57.1998,-0.0208 c 3.7466,-0.84552 4.4382,5.84168 1.0348,6.78392 -3.9026,1.07978 -4.7944,-5.93528 -1.0348,-6.78392 m 7.28,3.8896 c 3.4892,-0.93678 3.9234,4.71172 1.0348,5.6628 -2.9822,0.98176 -4.2978,-4.7866 -1.0348,-5.6628 m -39,32.12716 c 3.3332,-0.6188 4.6306,1.96118 5.46,4.94 2.1086,0.28392 4.576,1.10734 5.8318,-1.3234 0.832,-1.61564 -0.3198,-4.1132 1.9682,-4.72472 5.8448,-1.56026 1.2532,7.0278 6.0892,6.9823 5.9072,-0.0554 9.7578,-10.0594 4.3004,-13.32058 -5.9098,-3.5321 -15.6442,-1.56208 -22.0896,-0.91754 -2.6032,0.26026 -5.3758,0.26936 -7.8,1.39308 -4.3875,2.03398 -4.7887,7.3606 -2.5678,11.13476 3.4874,5.92592 10.2144,1.742 8.8078,-4.1639 m -29.64,48.09999 c -3.9583,5.60303 -9.6224,10.34543 -10.3556,17.68003 -1.8572,18.5718 22.1174,19.5104 35.0556,17.3446 2.2984,-0.3848 4.5778,-1.2194 6.76,-2.0176 4.9296,-1.8096 15.093,-6.4506 15.5766,-12.467 0.4316,-5.3846 -7.7012,-8.8296 -4.6332,-14.04 0.5044,-0.8554 1.1232,-1.62243 1.807,-2.34003 0.9672,-1.0166 2.0072,-1.9604 3.1096,-2.8288 2.1606,-1.7017 5.7564,-4.30612 8.58,-4.56768 1.6432,-0.1521 3.5906,0.82706 5.2,1.15544 3.6686,0.74802 7.4464,1.28206 11.18,1.5379 10.3376,0.70772 20.1786,-1.9331 28.34,-8.45286 5.902,-4.71432 12.4592,-14.97444 5.8604,-21.86599 -1.0244,-1.06782 -6.6222,-4.6592 -7.5088,-1.87044 -0.5538,1.74772 3.9624,3.27158 4.9426,4.40284 2.4336,2.80721 1.8954,6.53431 0.3172,9.60959 -2.3296,4.53752 -6.4636,7.7428 -10.8914,10.09658 -12.038,6.39704 -24.9106,5.29776 -37.7,2.09612 -4.9244,-1.23266 -11.063,-1.85484 -14.9474,-5.4366 -1.781,-1.64268 -3.9572,-4.31626 -4.4278,-6.7561 -1.2064,-6.26002 3.1122,-13.34527 0.9152,-19.49999 -1.8512,1.053 -1.716,3.59554 -1.8434,5.46 -0.3068,4.46316 0.1534,9.37741 -1.8642,13.51999 -1.456,2.98792 -3.9052,4.9881 -6.4324,7.0408 -7.6654,6.2257 -20.6505,9.46556 -30.42,8.79606 -9.359,-0.64168 -20.838,-8.06286 -23.7188,-17.39686 -1.196,-3.8753 -0.2678,-8.43517 1.5626,-11.95999 0.7787,-1.49942 2.0852,-2.86052 2.6941,-4.42 0.4841,-1.23994 -5e-4,-2.85272 -1.5982,-2.48222 -1.6614,0.38532 -3.1678,2.4791 -4.1184,3.78222 -3.2386,4.43924 -4.3883,10.59603 -2.7074,15.85999 3.0204,9.45958 13.447,18.29854 23.2061,19.86686 2.5168,0.4043 5.5731,0.85956 8.06,0.15314 m 37.18,-37.43999 -0.78,6.24 h -0.26 c 0,-2.07714 -0.338,-4.51672 1.04,-6.24 m 18.7044,1.02414 c -2.2048,0.17862 -4.2796,3.87088 -1.2844,3.58124 1.638,-0.15834 3.4632,-3.75752 1.2844,-3.58124 m -49.9044,1.57586 2.6,-0.52 v 0.26 l -1.3,1.04 c 3.8984,-0.43446 0.6853,-4.00998 -1.3,-0.78 m 67.86,0.52 h 1.56 c -0.5668,2.48872 3.4138,1.599 3.4138,-0.234 0,-2.22872 -4.4564,-1.36318 -4.9738,0.234 m -18.2,-1.04 c -0.3016,1.01426 -0.7956,1.35096 -1.82,1.56 0.3276,-1.066 0.6942,-1.47056 1.82,-1.56 m -61.1,0.52 v 1.04 c -4.3886,-0.80444 -2.8821,5.75874 0.1471,2.29736 0.3409,-0.38974 0.4696,-0.78078 0.6329,-1.25736 l 1.3,1.04 c -0.1885,-1.3221 -0.734,-2.71284 -2.08,-3.12 m 82.94,0.26 -1.56,1.04 0.26,-1.04 h 1.3 m -82.42,0.78 v 0.52 h -0.52 v -0.52 h 0.52 m -1.04,0.52 -1.56,1.82 1.56,-1.82 m 21.06,10.39999 h 1.56 c -0.3591,6.50104 8.6156,-2.70868 2.8654,-3.08282 -0.4779,-0.0312 -0.8559,0.0913 -1.3054,0.22282 -1.0169,-0.8424 -2.8158,1.9721 -3.12,2.86 m 4.94,-1.56 c -0.092,0.43732 -0.1659,0.88634 -0.3289,1.3052 -1.2103,3.1135 -3.5067,-0.33228 -1.2171,-1.13542 0.4953,-0.17394 1.0299,-0.15756 1.546,-0.16978 m -20.54,3.9 c 0.2548,1.59796 1.6484,1.82442 2.8007,0.70746 2.4845,-2.40812 -1.6809,-5.53566 -2.755,-3.26326 -0.6708,1.41908 2.6221,0.3887 1.9495,2.03112 -0.3903,0.95212 -1.2238,0.78962 -1.9952,0.52468 m 46.28,-2.08 c -0.1482,1.35798 -1.3468,1.91256 -2.6,2.08 l 0.52,-2.6 c -1.8148,0.97656 -1.846,4.147 0.78,3.46996 1.4482,-0.3731 4.0716,-3.58124 1.3,-2.94996 m -60.84,0 1.56,1.82 c -0.8729,0.092 -1.2782,0.17004 -1.56,1.04 3.0537,0.56862 2.9595,-2.69802 0,-2.86 m 100.1,2.08 c 1.287,-0.26312 2.873,-0.0442 1.3,1.3 l 0.26,-0.78 c -0.455,0.1378 -1.6094,0.65624 -0.8684,1.29298 1.2662,1.08576 3.0056,-1.02076 2.4908,-2.28384 -0.6292,-1.54882 -3.4658,-1.42506 -3.1824,0.47086 m -20.54,-0.26 1.3,1.3 c -1.664,0.54782 -2.665,2.83998 -0.2626,2.16528 2.7586,-0.77584 1.053,-3.35088 -1.0374,-3.46528 m 1.56,1.56 -1.56,1.3 1.56,-1.3 m -31.72,1.82 c 2.5948,8.98638 10.7978,10.16626 18.2,13 -5.1506,3.42056 -13.2054,5.798 -13.6812,13.30423 -0.3406,5.408 10.0386,8.528 5.0518,14.2558 -0.6786,0.7774 -1.4508,1.469 -2.2906,2.0696 -9.7006,6.9394 -20.942,9.5576 -32.76,7.696 -4.1606,-0.6552 -8.7665,-1.69 -11.9561,-4.6098 -5.0334,-4.6072 -3.6556,-12.5996 -1.1898,-18.1558 1.6086,-3.6244 4.3451,-8.32783 7.9459,-10.25209 1.7417,-0.93132 4.0809,-0.98176 5.98,-1.48824 3.3641,-0.89726 6.747,-2.15098 9.88,-3.66678 4.0445,-1.95728 7.7248,-4.28506 10.9174,-7.47682 1.4404,-1.44118 2.4492,-3.27912 3.9026,-4.6761 m 4.68,8.58 c -1.5912,-2.45518 -7.7558,0.78026 -9.62,1.794 -7.7917,4.23956 -14.5379,13.01303 -17.3758,21.34603 -0.6992,2.0514 -3.5399,10.1894 0.4797,10.5846 1.1177,0.1118 1.9307,-0.806 2.3374,-1.7446 1.2391,-2.8652 1.7557,-5.7876 3.3397,-8.58 3.5313,-6.2244 6.9674,-13.29903 12.0016,-18.46003 2.4362,-2.49496 5.252,-4.65478 8.8374,-4.94 z"
       id="path641"
       inkscape:connector-curvature="0" />
  </g>
</svg>
